<svg width="521" height="521" viewBox="0 0 521 521" fill="none" xmlns="http://www.w3.org/2000/svg">
<path fill-rule="evenodd" clip-rule="evenodd" d="M260.5 521C404.37 521 521 404.37 521 260.5C521 116.63 404.37 0 260.5 0C116.63 0 0 116.63 0 260.5C0 404.37 116.63 521 260.5 521ZM387.928 205.394C387.229 204.695 386.315 204.319 385.348 204.319C384.38 204.319 383.467 204.695 382.768 205.394L379.274 208.888C380.43 192.278 374.033 175.963 361.723 164.541C351.617 155.16 338.394 150 324.525 150C317.349 150 310.334 151.371 303.722 154.058C296.869 156.854 290.741 160.939 285.526 166.234C281.979 169.835 278.915 173.894 276.496 178.275C275.985 179.188 275.877 180.264 276.173 181.258C276.469 182.253 277.194 183.086 278.108 183.543C278.646 183.811 279.237 183.946 279.829 183.946C281.226 183.946 282.489 183.193 283.161 181.984C285.285 178.14 287.945 174.593 291.063 171.475C295.579 166.959 300.819 163.465 306.679 161.073C312.35 158.762 318.343 157.606 324.471 157.606C330.626 157.606 336.62 158.762 342.291 161.073C348.15 163.465 353.418 166.959 357.934 171.502C363.39 176.985 367.448 183.758 369.706 191.122C371.587 197.277 372.178 203.835 371.479 210.258L366.399 205.286C365.728 204.641 364.841 204.265 363.9 204.265C362.959 204.265 362.045 204.641 361.374 205.313C359.976 206.711 359.976 208.968 361.374 210.366L372.877 221.896C373.388 222.407 374.06 222.676 374.758 222.676C375.457 222.676 376.129 222.407 376.64 221.896L387.955 210.554C389.353 209.13 389.353 206.818 387.928 205.394ZM370.888 226.573C370.351 226.304 369.759 226.17 369.168 226.17C367.771 226.17 366.507 226.922 365.835 228.132C363.712 231.975 361.051 235.523 357.934 238.641C353.418 243.156 348.177 246.677 342.291 249.042C336.62 251.354 330.626 252.509 324.471 252.509C318.316 252.509 312.323 251.354 306.679 249.042C300.82 246.65 295.552 243.156 291.036 238.641C280.931 228.481 275.985 214.209 277.517 199.964L282.462 204.937C283.107 205.582 283.968 205.931 284.881 205.931C285.795 205.931 286.655 205.582 287.3 204.937L287.65 204.587C288.967 203.27 288.967 201.093 287.65 199.776L276.12 188.219C275.609 187.709 274.937 187.44 274.238 187.44C273.54 187.44 272.867 187.709 272.357 188.219L261.068 199.588C259.644 201.013 259.644 203.324 261.068 204.749C261.328 205.009 261.618 205.224 261.929 205.392C262.455 205.675 263.041 205.824 263.648 205.824C264.616 205.824 265.53 205.448 266.229 204.749L269.723 201.228C269.239 208.162 270.072 215.204 272.142 221.789C274.803 230.228 279.345 237.727 285.661 244.043C290.902 249.311 297.003 253.369 303.83 256.165C310.415 258.852 317.376 260.196 324.499 260.196C331.621 260.196 338.582 258.825 345.167 256.165C351.994 253.396 358.095 249.311 363.336 244.043C366.964 240.415 370.055 236.302 372.528 231.841C373.039 230.927 373.146 229.852 372.85 228.857C372.528 227.863 371.829 227.03 370.888 226.573Z" fill="black"/>
</svg>
