<svg width="521" height="521" viewBox="0 0 521 521" fill="none" xmlns="http://www.w3.org/2000/svg">
<path fill-rule="evenodd" clip-rule="evenodd" d="M260.5 521C404.37 521 521 404.37 521 260.5C521 116.63 404.37 0 260.5 0C116.63 0 0 116.63 0 260.5C0 404.37 116.63 521 260.5 521ZM273.438 131H375.562C382.984 131 389 137.016 389 144.438V246.562C389 253.984 382.984 260 375.562 260H273.438C266.016 260 260 253.984 260 246.562V144.438C260 137.016 266.016 131 273.438 131ZM286.875 233.125H340.625V217H286.875V233.125ZM286.875 203.562H362.125V187.438H286.875V203.562ZM286.875 174H362.125V157.875H286.875V174Z" fill="black"/>
</svg>
