<svg width="521" height="521" viewBox="0 0 521 521" fill="none" xmlns="http://www.w3.org/2000/svg">
<path fill-rule="evenodd" clip-rule="evenodd" d="M260.5 521C404.37 521 521 404.37 521 260.5C521 116.63 404.37 0 260.5 0C116.63 0 0 116.63 0 260.5C0 404.37 116.63 521 260.5 521ZM260 195.5C260 159.878 288.877 131 324.5 131C360.122 131 389 159.878 389 195.5C389 231.122 360.122 260 324.5 260C288.877 260 260 231.122 260 195.5ZM285.407 234.593C294.257 243.443 305.58 248.921 317.818 250.387C318.302 249.182 318.948 248.006 319.573 246.87C321.369 243.606 322.987 240.665 320.073 238.257C317.539 236.164 315.232 234.031 312.907 231.706C312.14 230.938 309.834 225.594 310.317 224.762C311.61 222.536 311.983 220.872 312.477 218.669C312.587 218.176 312.704 217.655 312.838 217.096C313.703 213.494 312.001 212.419 309.171 210.63L308.688 210.324C305.604 208.361 302.716 205.986 299.843 203.624C298.318 202.371 296.798 201.121 295.254 199.937C294.727 199.532 294.142 199.142 293.546 198.745C291.653 197.482 289.656 196.149 289.046 194.06C288.825 193.3 288.633 192.491 288.437 191.667C287.911 189.448 287.358 187.121 286.131 185.353C282.138 179.598 282.459 175.216 282.933 168.756C282.971 168.229 283.011 167.688 283.049 167.131C283.141 165.795 282.936 164.107 282.722 162.354C282.612 161.452 282.5 160.532 282.425 159.635C273.877 169.63 269.214 182.206 269.214 195.5C269.214 210.268 274.965 224.151 285.407 234.593ZM334.892 249.812C345.701 247.768 355.644 242.542 363.593 234.593C370.736 227.449 375.683 218.694 378.096 209.149C375.507 209.518 372.395 208.458 372.395 208.458C372.395 208.458 365.655 201.106 365.1 194.636C364.857 191.801 364.847 189.239 364.837 186.795C364.823 183.447 364.811 180.321 364.202 177.02C363.65 174.025 361.496 171 359.39 168.043C358.089 166.216 356.807 164.415 355.931 162.662C353.785 158.365 351.672 154.071 349.647 149.716C350.074 149.877 350.547 150.004 350.997 150.165C351.283 150.267 351.559 150.383 351.807 150.53C352.57 150.433 353.29 150.339 353.973 150.255C354.679 150.169 355.346 150.094 355.981 150.037C348.993 145.176 341.013 142.023 332.562 140.796V143.382L333.664 146.259L329.392 150.288L326.701 149.421L323.624 146.249L320.541 142.589L316.173 140.834C311.297 141.566 306.581 142.938 302.123 144.912C302.175 145.246 302.223 145.581 302.259 145.922C302.301 146.313 302.328 146.712 302.328 147.124C303.439 146.661 304.623 146.27 305.806 145.879C306.991 145.487 308.177 145.095 309.29 144.631C309.987 144.341 311.902 145.771 313.174 146.722C313.579 147.024 313.919 147.278 314.134 147.412C313.705 147.906 312.837 148.613 311.868 149.403C309.968 150.952 307.675 152.821 307.511 154.035C307.466 154.368 307.888 154.792 308.356 155.262C308.907 155.815 309.521 156.433 309.512 157.041L309.431 162.385C309.802 162.07 310.743 161.129 311.814 160.059C313.648 158.226 315.861 156.014 316.235 155.917C320.181 154.899 326.899 161.426 327.476 163.729C327.896 165.41 324.13 168.547 320.742 171.368C319.486 172.415 318.282 173.417 317.362 174.287C316.608 175 315.646 175.625 314.698 176.242C312.369 177.756 310.119 179.219 311.222 181.8C311.726 182.982 314.338 188.007 312.838 189.261C311.255 190.583 309 187.56 307.896 186.08C307.718 185.842 307.571 185.645 307.46 185.511C305.525 183.166 301.896 183.316 298.593 183.452C297.581 183.494 296.599 183.535 295.705 183.502L295.704 184.216C295.694 189.282 295.687 193.335 300.333 196.835C301.43 197.661 302.514 198.518 303.599 199.376C307.176 202.204 310.772 205.047 314.931 206.863C316.786 207.673 319.334 207.278 321.879 206.884C324.766 206.438 327.649 205.992 329.512 207.303C330.246 207.819 330.964 208.331 331.672 208.836C335.707 211.714 339.426 214.367 344.136 216.412C346.597 217.48 354.189 222.577 351.998 225.957L351.513 226.702C350.142 228.807 348.816 230.844 347.788 233.156C346.638 235.743 343.882 239.01 341.681 240.708C339.151 242.659 336.423 246.024 334.892 249.812Z" fill="black"/>
</svg>
