<svg width="521" height="521" viewBox="0 0 521 521" fill="none" xmlns="http://www.w3.org/2000/svg">
<path fill-rule="evenodd" clip-rule="evenodd" d="M260.5 521C404.37 521 521 404.37 521 260.5C521 116.63 404.37 0 260.5 0C116.63 0 0 116.63 0 260.5C0 404.37 116.63 521 260.5 521ZM382.542 170.933L358.786 169.781L357.404 154.29C357.116 151.036 354.208 148.761 350.81 149.02L265.605 156.017C262.207 156.305 259.76 159.041 260.019 162.266L266.123 230.165C266.411 233.419 269.348 235.694 272.717 235.435L277.036 235.089L276.345 248.277C276.173 251.905 278.994 254.842 282.796 255.044L377.848 259.565C381.65 259.738 384.788 257.088 384.99 253.461L388.992 177.643C389.165 174.043 386.314 171.106 382.542 170.933ZM280.348 172.46L278.303 211.275L273.264 218.388L268.628 167.132V166.988V166.844C268.916 165.405 269.895 164.253 271.393 164.138L346.548 157.976C348.046 157.86 349.341 158.839 349.572 160.25C349.572 160.279 349.593 160.293 349.615 160.308C349.636 160.322 349.658 160.337 349.658 160.365C349.658 160.386 349.704 160.407 349.729 160.441C349.738 160.452 349.744 160.465 349.744 160.481L350.522 169.35L287.46 166.326C283.659 166.211 280.521 168.86 280.348 172.46ZM376.524 240.675L352.106 212.024L341.336 221.901L321.41 198.634L286.078 236.27L289.073 178.939V178.823C289.361 177.268 290.858 176.145 292.5 176.232L376.351 180.263C378.021 180.349 379.317 181.616 379.346 183.2C379.346 183.258 379.432 183.287 379.432 183.344L376.524 240.675ZM361.349 204.278C366.417 204.278 370.563 200.131 370.563 195.064C370.563 189.996 366.446 185.849 361.349 185.849C356.281 185.849 352.135 189.967 352.135 195.064C352.135 200.16 356.252 204.278 361.349 204.278Z" fill="black"/>
</svg>
