<svg width="521" height="521" viewBox="0 0 521 521" fill="none" xmlns="http://www.w3.org/2000/svg">
<path fill-rule="evenodd" clip-rule="evenodd" d="M260.5 521C404.37 521 521 404.37 521 260.5C521 116.63 404.37 0 260.5 0C116.63 0 0 116.63 0 260.5C0 404.37 116.63 521 260.5 521ZM260 195.5C260 159.87 288.87 131 324.5 131C360.13 131 389 159.87 389 195.5C389 231.13 360.13 260 324.5 260C288.87 260 260 231.13 260 195.5ZM354.269 185.577C354.269 181.453 350.951 178.135 346.827 178.135C342.703 178.135 339.385 181.453 339.385 185.577C339.385 189.701 342.703 193.019 346.827 193.019C350.951 193.019 354.269 189.701 354.269 185.577ZM309.615 185.577C309.615 181.453 306.297 178.135 302.173 178.135C298.049 178.135 294.731 181.453 294.731 185.577C294.731 189.701 298.049 193.019 302.173 193.019C306.297 193.019 309.615 189.701 309.615 185.577ZM295.289 208.617C298.979 221.269 310.639 230.541 324.5 230.541C338.361 230.541 350.021 221.269 353.68 208.617C354.145 207.005 352.936 205.423 351.292 205.423H297.677C296.002 205.423 294.824 207.036 295.289 208.617Z" fill="black"/>
</svg>
