<svg width="521" height="521" viewBox="0 0 521 521" fill="none" xmlns="http://www.w3.org/2000/svg">
<path fill-rule="evenodd" clip-rule="evenodd" d="M260.5 521C404.37 521 521 404.37 521 260.5C521 116.63 404.37 0 260.5 0C116.63 0 0 116.63 0 260.5C0 404.37 116.63 521 260.5 521ZM357.601 131H357.923C377.862 131.193 394 147.415 394 167.443C394 179.375 388.782 196.306 378.603 210.238C359.212 236.78 327 260 327 260C327 260 294.788 236.78 275.397 210.238C265.218 196.306 260 179.375 260 167.443C260 147.415 276.138 131.193 296.077 131H296.399C309.187 131 320.493 137.773 327 147.77C333.507 137.773 344.813 131 357.601 131Z" fill="black"/>
</svg>
