<svg width="521" height="521" viewBox="0 0 521 521" fill="none" xmlns="http://www.w3.org/2000/svg">
<path fill-rule="evenodd" clip-rule="evenodd" d="M260.5 521C404.37 521 521 404.37 521 260.5C521 116.63 404.37 0 260.5 0C116.63 0 0 116.63 0 260.5C0 404.37 116.63 521 260.5 521ZM324.391 131H324.484C360.044 131 389 159.932 389 195.5C389 231.068 360.075 260 324.516 260H324.453H324.298C307.123 259.938 290.971 253.209 278.849 241.053C266.696 228.866 260 212.71 260 195.5C260 178.29 266.696 162.134 278.818 149.947C290.971 137.791 307.092 131.062 324.267 131H324.391ZM356.293 191.159H380.35C379.513 180.119 375.483 169.762 368.663 161.017C363.702 163.653 358.556 165.824 353.255 167.529C354.991 174.972 356.014 182.879 356.293 191.159ZM300.985 191.159H320.144V171.933C314.595 171.685 309.107 170.94 303.713 169.731C302.163 176.367 301.233 183.561 300.985 191.159ZM320.144 219.036V199.841H300.985C301.233 207.408 302.163 214.602 303.713 221.238C309.107 220.029 314.626 219.284 320.144 219.036ZM347.829 199.841H328.825V219.036C334.312 219.284 339.769 219.998 345.101 221.207C346.651 214.602 347.581 207.408 347.829 199.841ZM328.825 171.933V191.159H347.829C347.581 183.561 346.651 176.398 345.101 169.762C339.8 170.94 334.343 171.685 328.825 171.933ZM350.96 159.405C354.991 158.102 358.928 156.49 362.741 154.598C356.975 149.203 350.185 145.078 342.745 142.505C345.969 147.032 348.759 152.769 350.96 159.405ZM328.825 163.498C333.537 163.25 338.218 162.63 342.776 161.637C339.242 151.249 334.095 143.59 328.825 140.737V163.498ZM320.144 163.467V140.613C314.843 143.435 309.634 151.094 306.038 161.575C310.658 162.599 315.37 163.219 320.144 163.467ZM297.854 159.374C300.055 152.8 302.814 147.094 306.007 142.598C298.66 145.14 291.932 149.234 286.228 154.598C289.979 156.459 293.885 158.071 297.854 159.374ZM295.559 167.498C290.32 165.824 285.205 163.653 280.306 161.048C273.486 169.793 269.456 180.15 268.65 191.128H292.521C292.769 182.848 293.792 174.91 295.559 167.498ZM292.49 199.841H268.619C269.456 210.85 273.486 221.207 280.275 229.921C285.174 227.347 290.289 225.176 295.528 223.471C293.792 216.059 292.769 208.121 292.49 199.841ZM297.854 231.626C293.854 232.929 289.948 234.541 286.197 236.402C291.932 241.766 298.66 245.829 306.007 248.433C302.814 243.906 300.055 238.231 297.854 231.626ZM320.144 227.502C315.401 227.75 310.658 228.37 306.038 229.394C309.634 239.875 314.812 247.565 320.144 250.387V227.502ZM328.825 227.471V250.263C334.095 247.41 339.242 239.751 342.776 229.331C338.218 228.339 333.537 227.719 328.825 227.471ZM350.991 231.595C348.79 238.231 346 243.968 342.776 248.495C350.185 245.922 357.006 241.797 362.772 236.433C358.99 234.541 355.022 232.898 350.991 231.595ZM353.255 223.44C358.556 225.145 363.702 227.316 368.663 229.952C375.514 221.207 379.513 210.85 380.35 199.841H356.293C356.014 208.121 354.991 216.028 353.255 223.44Z" fill="black"/>
</svg>
