<svg width="521" height="521" viewBox="0 0 521 521" fill="none" xmlns="http://www.w3.org/2000/svg">
<path fill-rule="evenodd" clip-rule="evenodd" d="M260.5 521C404.37 521 521 404.37 521 260.5C521 116.63 404.37 0 260.5 0C116.63 0 0 116.63 0 260.5C0 404.37 116.63 521 260.5 521ZM340.443 185.015C344.102 183.743 348.008 183.743 352.04 183.743C372.442 183.743 389 200.301 389 221.541C389 242.781 372.504 259.99 352.102 259.99C331.699 259.99 315.141 242.781 315.141 221.541C315.141 215.929 315.978 211.557 318.056 206.751C317.032 205.107 315.203 203.092 314.831 201.355C314.676 200.642 315.21 198.704 315.745 196.766C316.28 194.828 316.815 192.89 316.66 192.177C316.35 190.751 314.18 188.86 313.25 188.642C311.734 188.302 309.583 189.364 307.638 190.324C306.041 191.112 304.583 191.832 303.73 191.65C301.839 191.247 297.405 187.371 297.033 184.177C296.886 182.914 297.558 181.472 298.243 180.003C299.289 177.759 300.364 175.453 298.583 173.635C296.683 171.695 294.474 172.683 292.396 173.613C291.251 174.125 290.147 174.618 289.157 174.596C287.079 174.565 285.746 173.449 284.32 171.898C282.521 169.976 281.436 168.581 281.467 166.007C281.481 164.912 281.743 163.68 281.995 162.494C282.306 161.029 282.603 159.635 282.397 158.658C282.025 156.891 281.529 155.806 279.172 154.782C278.235 154.381 276.758 154.638 275.135 154.921C272.624 155.36 269.762 155.859 268.01 154.069C266.087 152.116 264.847 151.155 260.196 146.38C258.646 144.767 266.738 136.023 268.878 133.977C270.304 132.612 272.847 131 275.482 131C277.064 131 278.676 131.558 280.134 133.077C283.178 136.241 321.707 169.057 338.579 183.427L340.443 185.015ZM349.311 230.223C349.311 235.711 353.745 240.146 359.233 240.146C364.721 240.146 369.155 235.711 369.155 230.223C369.155 224.735 364.721 220.301 359.233 220.301C353.745 220.301 349.311 224.735 349.311 230.223Z" fill="black"/>
</svg>
