<svg width="521" height="521" viewBox="0 0 521 521" fill="none" xmlns="http://www.w3.org/2000/svg">
<path fill-rule="evenodd" clip-rule="evenodd" d="M260.5 521C404.37 521 521 404.37 521 260.5C521 116.63 404.37 0 260.5 0C116.63 0 0 116.63 0 260.5C0 404.37 116.63 521 260.5 521ZM342.118 155.766L403.136 174.513C408.288 176.097 408.288 182.904 403.136 184.488L342.116 203.235C337.664 204.602 333.862 203.843 331.88 203.235L289.099 190.09C286.42 191.932 284.74 194.837 284.573 198.123C286.584 199.352 287.999 201.47 287.999 204.001C287.999 206.359 286.756 208.343 284.967 209.612L290.552 234.742C291.037 236.927 289.375 239.001 287.135 239.001H274.861C272.623 239.001 270.96 236.927 271.446 234.742L277.031 209.612C275.241 208.343 273.999 206.359 273.999 204.001C273.999 201.4 275.482 199.221 277.589 198.014C277.731 194.159 279.166 190.639 281.5 187.754L270.862 184.486C265.713 182.904 265.713 176.095 270.862 174.513L331.883 155.766C335.205 154.745 338.793 154.745 342.118 155.766ZM329.824 209.927C332.613 210.784 337.931 211.843 344.172 209.927L375.897 200.179L378.999 225.001C378.999 232.734 360.196 239.001 336.999 239.001C313.803 239.001 294.999 232.734 294.999 225.001L298.101 200.181L329.824 209.927Z" fill="black"/>
</svg>
