<svg width="521" height="521" viewBox="0 0 521 521" fill="none" xmlns="http://www.w3.org/2000/svg">
<path fill-rule="evenodd" clip-rule="evenodd" d="M260.5 521C404.37 521 521 404.37 521 260.5C521 116.63 404.37 0 260.5 0C116.63 0 0 116.63 0 260.5C0 404.37 116.63 521 260.5 521ZM309.808 120C336.024 120 359.615 141.202 359.615 167.418C359.615 177.851 355.173 186.298 349.452 194.375H349.485C347.856 196.616 346.254 198.042 344.679 199.444C342.706 201.199 340.774 202.917 338.885 206.154C334.274 214.13 332.995 219.817 332.692 225C332.524 227.827 330.168 230.048 327.308 230.048H323.942C323.202 230.048 322.596 229.442 322.596 228.702V196.933C322.596 195.284 323 193.635 323.74 192.12L330.909 177.784C332.053 175.529 330.404 172.87 327.88 172.87C326.601 172.87 325.423 173.611 324.851 174.755L316.303 192.12C315.562 193.601 315.192 195.216 315.192 196.865V228.702C315.192 229.442 314.586 230.048 313.846 230.048H305.769C305.029 230.048 304.423 229.442 304.423 228.702V196.865C304.423 195.216 304.053 193.601 303.312 192.12L294.798 174.822C294.226 173.611 292.981 172.836 291.635 172.836C289.01 172.836 287.293 175.596 288.471 177.952L295.539 192.086C296.279 193.601 296.683 195.216 296.683 196.899V228.702C296.683 229.442 296.077 230.048 295.336 230.048H292.341C289.481 230.048 287.091 227.793 286.957 224.899C286.755 219.851 285.61 214.635 280.664 206.154C278.774 202.917 276.842 201.199 274.869 199.444C273.293 198.042 271.691 196.616 270.062 194.375H270.164C264.442 186.298 260 177.851 260 167.418C260 141.236 283.591 120 309.808 120ZM315.865 260C318.457 260 320.577 257.88 320.577 255.289C320.577 252.697 318.457 250.577 315.865 250.577H303.75C301.159 250.577 299.039 252.697 299.039 255.289C299.039 257.88 301.159 260 303.75 260H315.865ZM322.596 245.192H297.019C294.428 245.192 292.308 243.072 292.308 240.481C292.308 237.889 294.428 235.769 297.019 235.769H322.596C325.188 235.769 327.308 237.889 327.308 240.481C327.308 243.072 325.188 245.192 322.596 245.192Z" fill="black"/>
</svg>
