<svg width="521" height="521" viewBox="0 0 521 521" fill="none" xmlns="http://www.w3.org/2000/svg">
<path fill-rule="evenodd" clip-rule="evenodd" d="M260.5 521C404.37 521 521 404.37 521 260.5C521 116.63 404.37 0 260.5 0C116.63 0 0 116.63 0 260.5C0 404.37 116.63 521 260.5 521ZM324.5 227.779C329.089 227.779 333.4 225.98 336.625 222.693L385.279 173.171C383.573 171.806 381.465 171 379.139 171H269.892C267.566 171 265.427 171.806 263.752 173.171L312.406 222.693C315.6 225.949 319.911 227.779 324.5 227.779ZM387.946 181.946L354.579 215.933C354.331 216.181 354.331 216.553 354.579 216.801L377.93 241.671C379.511 243.252 379.511 245.795 377.93 247.377C377.154 248.152 376.1 248.555 375.077 248.555C374.053 248.555 372.999 248.152 372.224 247.377L348.967 222.6C348.719 222.352 348.315 222.352 348.067 222.6L342.393 228.368C337.648 233.174 331.353 235.841 324.593 235.872C317.74 235.903 311.228 233.019 306.421 228.151L300.964 222.6C300.716 222.352 300.312 222.352 300.064 222.6L276.807 247.377C276.032 248.152 274.978 248.555 273.954 248.555C272.931 248.555 271.877 248.152 271.101 247.377C269.52 245.795 269.52 243.252 271.101 241.671L294.452 216.801C294.669 216.553 294.669 216.181 294.452 215.933L261.054 181.946C260.651 181.543 260 181.822 260 182.381V250.385C260 255.842 264.465 260.308 269.923 260.308H379.077C384.535 260.308 389 255.842 389 250.385V182.381C389 181.822 388.318 181.574 387.946 181.946Z" fill="black"/>
</svg>
