<svg width="521" height="521" viewBox="0 0 521 521" fill="none" xmlns="http://www.w3.org/2000/svg">
<path fill-rule="evenodd" clip-rule="evenodd" d="M260.5 521C404.37 521 521 404.37 521 260.5C521 116.63 404.37 0 260.5 0C116.63 0 0 116.63 0 260.5C0 404.37 116.63 521 260.5 521ZM260 195.5C260 159.87 288.87 131 324.5 131C360.13 131 389 159.87 389 195.5C389 231.13 360.13 260 324.5 260C288.87 260 260 231.13 260 195.5ZM366.31 212.216C367.293 212.416 368.212 212.602 368.937 212.834C371.697 213.734 374.115 215.377 375.852 217.548C378.798 210.664 380.348 203.221 380.348 195.5C380.348 180.429 374.395 166.227 363.603 155.653C353.029 145.295 338.733 139.559 323.973 139.683C309.336 139.807 295.568 145.574 285.18 155.901C274.637 166.351 268.683 180.646 268.683 195.5C268.683 205.733 271.412 215.532 276.528 224.06C279.809 222.317 283.301 221.655 287.005 220.952C287.783 220.804 288.57 220.655 289.366 220.494C291.444 220.06 296.623 219.067 297.243 216.711C297.788 214.639 297.806 212.376 297.823 210.217C297.825 209.919 297.828 209.623 297.832 209.33C297.856 208.691 297.686 208.52 297.336 208.167C297.245 208.075 297.141 207.97 297.025 207.842C295.909 206.57 294.948 205.175 294.483 203.531C293.8 201.082 293.521 198.508 293.273 195.996C291.001 196.621 290.277 193.062 289.822 190.827C289.712 190.286 289.618 189.823 289.521 189.515C289.18 188.399 288.591 183.778 290.576 182.91C289.645 181.236 289.335 179.158 289.118 177.297C288.622 173.204 288.498 168.956 289.986 165.049C293.087 157.017 301.398 153.048 309.677 153.327C317.833 153.575 325.554 158.102 328.066 166.165C329.275 170.041 329.027 174.383 328.407 178.352C328.19 179.871 327.88 181.546 327.105 182.91C329.461 183.747 328.252 189.174 327.911 190.228C327.823 190.518 327.739 190.933 327.642 191.411C327.23 193.441 326.591 196.599 324.407 195.996C324.371 196.359 324.337 196.73 324.303 197.107C324.041 200.009 323.75 203.232 322.267 205.702C322.109 205.962 321.744 206.347 321.344 206.767C320.649 207.499 319.849 208.342 319.849 208.834C319.849 210.012 319.879 211.191 319.941 212.369C319.957 212.619 319.97 212.875 319.983 213.133C320.049 214.414 320.118 215.772 320.531 216.959C320.975 218.187 322.83 218.755 324.163 219.163C324.412 219.239 324.642 219.309 324.841 219.377C326.935 220.106 329.113 220.494 331.292 220.882C333.47 221.269 335.648 221.657 337.741 222.385C346.424 225.393 351.943 233.456 351.943 242.604C351.975 243.286 352.688 243.689 353.277 243.348L355.044 242.231C356.223 241.425 356.905 240.061 356.75 238.665C356.161 233.394 354.641 228.773 350.548 224.835C344.47 218.943 336.284 217.083 336.284 217.083C335.229 216.711 333.927 216.4 332.718 216.183C331.508 215.966 331.322 214.292 332.469 213.827C334.857 212.834 336.718 212.276 337.555 212.059C338.795 211.718 342.113 210.664 342.455 209.144C342.547 208.741 342.455 204.834 342.455 204.834C335.818 204.245 333.493 202.88 333.493 202.88C331.989 202.117 332.304 201.592 332.882 200.627C333.055 200.339 333.252 200.01 333.431 199.624C335.092 195.935 335.082 191.229 335.07 186.496C335.052 178.42 335.033 170.264 343.323 166.94C345.37 166.103 348.222 165.669 351.168 165.669C354.796 165.669 358.548 166.351 360.905 167.808C365.619 170.723 366.983 176.398 367.107 181.577C367.146 183.151 367.079 184.786 367.01 186.443C366.807 191.347 366.597 196.437 369.123 200.679C369.256 200.905 369.387 201.089 369.498 201.245C369.901 201.813 370.041 202.01 369.092 202.57C369.092 202.57 367.293 204.028 359.479 204.462C359.479 204.462 358.89 208.524 359.789 209.609C361.068 211.154 363.886 211.725 366.31 212.216Z" fill="black"/>
</svg>
