<svg width="521" height="521" viewBox="0 0 521 521" fill="none" xmlns="http://www.w3.org/2000/svg">
<path fill-rule="evenodd" clip-rule="evenodd" d="M521 260.5C521 404.37 404.37 521 260.5 521C116.63 521 0 404.37 0 260.5C0 116.63 116.63 0 260.5 0C404.37 0 521 116.63 521 260.5ZM388.321 132.749C388.197 132.222 387.825 131.819 387.298 131.695C370.433 127.572 331.466 142.266 310.354 163.377C306.231 167.5 302.852 171.562 300.093 175.499C293.583 174.91 287.073 175.406 281.524 177.824C265.868 184.706 261.311 202.686 260.04 210.405C259.73 212.234 261.249 213.815 263.078 213.629L288.22 210.87C288.251 213.288 288.406 215.21 288.561 216.543C288.685 217.845 289.274 219.054 290.204 219.984L299.938 229.719C300.868 230.649 302.077 231.238 303.379 231.362C304.712 231.517 306.634 231.672 309.021 231.703L306.262 256.813C306.076 258.642 307.657 260.161 309.486 259.851C317.205 258.611 335.217 254.054 342.068 238.399C344.486 232.85 344.982 226.371 344.424 219.891C348.361 217.132 352.453 213.753 356.576 209.63C377.781 188.55 392.382 150.45 388.321 132.749ZM337.728 182.319C332.551 177.142 332.551 168.772 337.728 163.594C342.905 158.417 351.275 158.417 356.452 163.594C361.629 168.772 361.629 177.142 356.452 182.319C351.275 187.496 342.905 187.496 337.728 182.319ZM293.118 236.57C295.629 236.136 297.954 235.392 299.256 234.09C299.938 233.377 301.147 233.966 301.054 234.958C300.682 237.996 299.349 240.941 296.993 243.297C291.413 248.877 270.674 249.404 270.674 249.404C270.674 249.404 271.201 228.696 276.781 223.116C279.106 220.791 282.082 219.426 285.12 219.055C286.112 218.93 286.701 220.109 285.988 220.822L285.957 220.853C284.655 222.124 283.942 224.449 283.508 226.96C282.547 232.602 287.476 237.531 293.118 236.57Z" fill="black"/>
</svg>
