<svg width="521" height="521" viewBox="0 0 521 521" fill="none" xmlns="http://www.w3.org/2000/svg">
<path fill-rule="evenodd" clip-rule="evenodd" d="M260.5 521C404.37 521 521 404.37 521 260.5C521 116.63 404.37 0 260.5 0C116.63 0 0 116.63 0 260.5C0 404.37 116.63 521 260.5 521ZM384.263 153.206L366.828 135.77C363.805 132.747 359.673 131 355.373 131H345.966C343.01 131 340.591 133.452 340.591 136.442V163.317C340.591 166.273 338.173 168.692 335.216 168.692H292.25C289.294 168.692 286.875 166.273 286.875 163.317V136.442C286.875 133.486 284.456 131 281.5 131H270.75C264.837 131 260 135.837 260 141.75V249.25C260 255.163 264.837 260 270.75 260H378.25C384.163 260 389 255.163 389 249.25V164.594C389 160.327 387.287 156.229 384.263 153.206ZM346.672 243.909C346.672 246.865 343.984 249.284 340.692 249.284H286.808C283.516 249.284 280.828 246.865 280.828 243.909V211.659C280.828 208.702 283.516 206.284 286.808 206.284H340.692C343.984 206.284 346.672 208.702 346.672 211.659V243.909ZM329.875 131H324.5C323.022 131 321.812 132.209 321.812 133.688V157.875C321.812 159.353 324.366 160.562 325.844 160.562H329.875C331.353 160.562 332.562 159.353 332.562 157.875V133.688C332.562 132.209 331.353 131 329.875 131Z" fill="black"/>
</svg>
