<svg width="521" height="521" viewBox="0 0 521 521" fill="none" xmlns="http://www.w3.org/2000/svg">
<path fill-rule="evenodd" clip-rule="evenodd" d="M260.5 521C404.37 521 521 404.37 521 260.5C521 116.63 404.37 0 260.5 0C116.63 0 0 116.63 0 260.5C0 404.37 116.63 521 260.5 521ZM357.229 212.225L385.609 240.606C390.128 245.125 390.128 252.467 385.624 256.999C381.105 261.518 373.763 261.518 369.245 256.999L340.582 228.336C340.002 227.757 339.494 227.136 339.071 226.472C331.799 230.002 323.624 231.993 314.997 231.993C284.597 231.993 260 207.382 260 176.997C260 146.597 284.597 122 314.997 122C345.382 122 369.993 146.597 369.979 176.997C369.979 190.41 365.192 202.68 357.229 212.225ZM314.997 133.578C291.021 133.578 271.578 153.021 271.578 176.997C271.578 200.972 291.021 220.415 314.997 220.415C338.958 220.415 358.415 200.972 358.415 176.997C358.415 153.021 338.972 133.578 314.997 133.578Z" fill="black"/>
</svg>
