<svg width="521" height="521" viewBox="0 0 521 521" fill="none" xmlns="http://www.w3.org/2000/svg">
<path fill-rule="evenodd" clip-rule="evenodd" d="M260.5 521C404.37 521 521 404.37 521 260.5C521 116.63 404.37 0 260.5 0C116.63 0 0 116.63 0 260.5C0 404.37 116.63 521 260.5 521ZM261.601 185.044L384.934 131.289C387.319 130.147 389.839 132.599 388.73 135.018L337.731 258.352C336.756 260.502 333.699 260.535 332.624 258.419L310.82 223.445C309.543 221.429 309.778 218.808 311.357 217.028L368.27 152.925C368.64 152.488 369.312 151.48 368.875 151.044C368.472 150.641 367.43 151.346 366.994 151.716L301.211 208.427C299.498 209.905 297.045 210.14 295.063 209.032L261.702 190.184C259.484 189.21 259.417 186.085 261.601 185.044Z" fill="black"/>
</svg>
