<svg width="521" height="521" viewBox="0 0 521 521" fill="none" xmlns="http://www.w3.org/2000/svg">
<path fill-rule="evenodd" clip-rule="evenodd" d="M521 260.5C521 404.37 404.37 521 260.5 521C116.63 521 0 404.37 0 260.5C0 116.63 116.63 0 260.5 0C404.37 0 521 116.63 521 260.5ZM378.767 215.532C378.767 214.167 379.139 212.865 379.79 211.749C379.926 211.5 380.095 211.267 380.261 211.039C380.322 210.955 380.382 210.871 380.441 210.788C385.837 202.725 389 193.081 389 182.786C389.093 154.195 364.967 131 335.136 131C309.119 131 287.413 148.707 282.327 172.212C281.583 175.654 281.18 179.158 281.18 182.817C281.18 211.439 304.375 235.254 334.206 235.254C338.95 235.254 345.338 233.828 348.842 232.866C352.346 231.905 355.819 230.634 356.719 230.292C357.618 229.952 358.61 229.766 359.603 229.766C360.719 229.766 361.773 229.982 362.734 230.386L380.317 236.619C380.317 236.619 381.061 236.929 381.526 236.929C382.891 236.929 384.007 235.843 384.007 234.448C384.007 234.138 383.852 233.611 383.852 233.611L378.767 215.532ZM339.788 238.82C341.338 238.479 342.765 238.138 343.881 237.828C344.644 237.628 345.407 237.407 346.139 237.177C346.656 237.015 347.158 236.848 347.633 236.681C346.486 238.293 345.493 239.657 345.493 239.657C336.284 250.511 322.701 256.744 308.251 256.744C301.77 256.744 295.289 255.317 289.428 253.022C288.219 252.558 287.475 252.62 287.475 252.62C286.854 252.62 286.265 252.744 285.707 252.96L268.311 259.813C268.031 259.938 267.721 260 267.411 260C266.853 260 266.295 259.813 265.83 259.441C265.147 258.853 264.807 257.953 264.993 257.054C264.993 257.054 268.559 238.386 268.683 237.828C268.807 237.27 268.404 236.433 267.69 235.347C262.636 227.75 260 219.005 260 209.919C260 196.74 265.83 184.088 276.001 175.22L278.482 173.018C278.079 174.382 277.707 175.778 277.396 177.173C277.086 178.476 276.869 179.809 276.683 181.143C276.435 183.127 276.218 185.732 276.218 187.778C276.218 216.4 299.413 240.216 329.244 240.216C332.376 240.216 336.532 239.502 339.788 238.82Z" fill="black"/>
</svg>
