<svg width="521" height="521" viewBox="0 0 521 521" fill="none" xmlns="http://www.w3.org/2000/svg">
<path fill-rule="evenodd" clip-rule="evenodd" d="M260.5 521C404.37 521 521 404.37 521 260.5C521 116.63 404.37 0 260.5 0C116.63 0 0 116.63 0 260.5C0 404.37 116.63 521 260.5 521ZM378.986 226.89C378.986 231.633 376.134 234.671 373.809 236.624C373.096 237.213 372.724 238.144 372.91 239.167C372.941 239.446 373.034 239.725 373.158 239.973C373.995 241.864 374.584 244.313 373.313 247.32C369.903 255.443 359.61 257.675 350 258.791C344.822 259.38 338.776 260 332.452 260C320.547 260 307.588 258.729 297.543 257.489C290.878 256.683 286.941 255.195 283.159 253.738L283.008 253.68C278.134 251.841 273.467 250.079 262.573 250.079C261.147 250.079 260 248.932 260 247.506V198.058C260 196.694 261.116 195.577 262.48 195.577C264.247 195.577 267.192 194.399 269.394 192.198C270.316 191.276 271.667 189.321 273.15 187.173L273.641 186.463C276.09 182.867 278.849 178.836 281.546 176.325C282.322 175.581 283.407 174.62 284.678 173.504C290.041 168.761 300.024 159.925 302.349 154.779C303.607 151.984 304.642 147.677 305.5 144.098C305.699 143.27 305.889 142.48 306.069 141.758C306.598 139.696 306.831 138.085 307.013 136.822C307.247 135.197 307.398 134.147 307.991 133.449C309.417 131.744 313.076 131 316.641 131C320.206 131 323.089 133.852 324.794 136.921C328.422 143.432 328.763 154.593 325.631 164.885C324.09 170.003 322.395 173.435 321.157 175.942L321.136 175.984C320.206 177.875 319.462 179.363 319.617 180.014C319.989 181.533 320.764 181.937 324.702 181.533C325.52 181.473 328.146 181.057 331.189 180.574L331.398 180.542C339.056 179.332 350.681 177.534 356.262 177.193C364.354 176.728 367.392 177.162 370.647 180.821C373.251 183.735 374.677 188.23 373.189 192.539C372.569 194.337 373.096 196.88 374.46 198.213C375.979 199.701 377.467 201.809 377.467 205.405C377.467 209.56 376.723 211.823 375.669 213.373C375.049 214.272 374.832 215.388 375.049 216.473L375.111 216.814C375.204 217.019 375.297 217.225 375.397 217.437C375.464 217.577 375.533 217.72 375.607 217.868C377.219 219.821 378.986 222.642 378.986 226.89Z" fill="black"/>
</svg>
