<svg width="521" height="521" viewBox="0 0 521 521" fill="none" xmlns="http://www.w3.org/2000/svg">
<path fill-rule="evenodd" clip-rule="evenodd" d="M260.5 521C404.37 521 521 404.37 521 260.5C521 116.63 404.37 0 260.5 0C116.63 0 0 116.63 0 260.5C0 404.37 116.63 521 260.5 521ZM321.672 151.48C325.468 151.48 329.082 152.442 331.526 153.976C333.138 155.016 336.31 157.226 334.23 157.252C334.23 157.252 324.896 155.718 318.474 161.204C313.742 165.26 310.83 169.082 310.544 174.906C310.284 180.496 312.182 183.72 319.462 190.948L320.918 190.168C321.256 189.986 321.646 189.908 322.01 189.908C322.66 189.908 323.284 190.142 323.648 190.506C323.648 190.506 322.452 189.258 327.418 194.172L314.418 206.444C310.146 202.196 310.823 202.853 310.984 203.011C310.428 202.454 310.085 201.306 310.674 200.334L311.688 198.644C305.162 192.17 301.626 188.92 298.454 188.036C297.843 187.868 297.313 187.736 296.753 187.656C296.484 187.617 296.207 187.59 295.911 187.577C295.775 187.571 295.635 187.568 295.49 187.568C293.02 187.568 291.174 188.27 290.004 189.336C288.834 190.402 286.858 193.652 288.626 195.42C289.318 196.112 289.95 196.74 290.463 197.248C291.261 198.039 291.772 198.54 291.772 198.54C292.344 199.086 292.344 200.022 291.772 200.568L283.14 209.616C282.88 209.902 282.49 210.032 282.126 210.032C281.762 210.032 281.398 209.902 281.112 209.616L264.602 193.21C264.03 192.664 264.03 191.728 264.602 191.182L273.468 182.368C273.728 182.082 274.118 181.952 274.482 181.952C274.482 181.952 278.824 184.032 280.904 181.952C282.009 180.846 281.94 179.426 281.87 177.997C281.809 176.737 281.747 175.472 282.49 174.412C284.076 172.176 286.624 169.316 288.444 167.496C290.29 165.676 297.44 158.812 309.53 153.872C313.794 152.13 317.954 151.48 321.672 151.48ZM346.398 212.892C362.336 228.102 380.25 242.974 380.25 242.974C380.796 243.52 380.796 244.456 380.224 245.002L365.898 259.224C365.638 259.51 365.248 259.64 364.884 259.64C364.702 259.64 364.521 259.607 364.349 259.539C364.176 259.471 364.013 259.367 363.87 259.224C363.87 259.224 349.206 241.804 333.996 226.048L346.398 212.892ZM384.592 171.578L370.968 185.254L357.682 182.836L355.29 169.55L368.914 155.874C366.028 152.988 361.946 151.558 358.774 151.558C358.683 151.558 358.591 151.558 358.503 151.561C358.416 151.564 358.332 151.571 358.254 151.584C355.004 151.74 348.062 153.586 342.68 159.306C337.48 164.792 331.994 175.062 336.856 186.424C337.428 187.802 338.078 189.596 336.154 191.546C335.995 191.694 335.537 192.128 334.829 192.8C333.801 193.775 332.244 195.252 330.304 197.084C329.368 197.968 328.38 198.904 327.288 199.944C325.208 201.92 322.842 204.156 320.32 206.496C320 206.799 319.678 207.102 319.354 207.406C318.676 208.043 317.99 208.688 317.304 209.356C302.484 223.344 284.31 240.426 284.31 240.426C279.63 244.456 279.968 251.892 284.284 256.234C286.494 258.418 289.484 259.562 292.422 259.562C295.282 259.562 298.116 258.47 300.092 256.156C300.092 256.156 317.122 238.008 331.11 223.162C331.585 222.648 332.061 222.146 332.534 221.648C333.017 221.138 333.497 220.633 333.97 220.12C336.388 217.546 338.65 215.154 340.678 213.022C341.242 212.414 341.791 211.83 342.318 211.275C342.739 210.833 343.146 210.409 343.538 210.006C344.896 208.565 346.056 207.338 346.959 206.39C348.043 205.251 348.756 204.513 348.998 204.286C350.038 203.272 351 202.96 351.884 202.96C352.742 202.96 353.496 203.272 354.12 203.584C356.694 204.91 359.58 205.482 362.544 205.482C369.486 205.482 376.844 202.258 381.29 197.812C387.634 191.468 388.778 185.358 388.986 182.212C389.142 179.144 388.05 175.036 384.592 171.578ZM295.724 249.786C294.294 251.19 291.98 251.19 290.576 249.786C289.172 248.356 289.172 246.042 290.576 244.638C292.006 243.234 294.32 243.234 295.724 244.638C297.128 246.068 297.128 248.382 295.724 249.786Z" fill="black"/>
</svg>
