<svg xmlns="http://www.w3.org/2000/svg" viewBox="0 0 57.6 62.43"><defs><style>.cls-1{fill:none;stroke:#232e3b;stroke-miterlimit:10;stroke-width:2px;}.cls-2{fill:#232e3b;}</style></defs><title>bespoke</title><g id="Layer_2" data-name="Layer 2"><g id="Layer_1-2" data-name="Layer 1"><path class="cls-1" d="M1,1V42.52l.23.27C6.1,50.6,14.31,55.28,28.13,61l.78.32.78-.32c13.83-5.74,22-10.42,26.81-18.24l.1-.12V1Z"/><path class="cls-2" d="M46.5,36.63a2.24,2.24,0,0,1-.34.62Q43.29,40.15,40.4,43c-.35.35-.59.32-1-.09L28.68,32.21,11.49,15c-.52-.52-.52-.7,0-1.21l5.43-5.42a1.24,1.24,0,0,1,2,0l8.71,8.71L45.92,35.37a1.8,1.8,0,0,1,.58,1.26M26.41,24.82l-1.59,1.52,1.44,1.46,1.53-1.59.91.86-1.57,1.54,1.51,1.5,1.47-1.5.92.8L29.42,31l1.43,1.42,1.55-1.59.84.89-1.59,1.54,1.49,1.49,1.56-1.6.87.86L34,35.53,35.51,37,37,35.43l.9.88-1.62,1.52,1.51,1.51,1.53-1.6.88.87-1.59,1.56L40,41.51l5.22-5.22L18.08,9.19l-5.19,5.18,4.25,4.28,1.48-1.57.89.85-1.59,1.55,1.43,1.43,1.51-1.53,1,.87-1.58,1.53,1.45,1.46,1.49-1.57.95.88-1.62,1.51L24,25.52l1.54-1.59.89.89"/><path class="cls-2" d="M27.85,32.77l-7.7,7.7L13.9,34.21l7.69-7.69,6.26,6.24"/><path class="cls-2" d="M43.18,17.45l-6.91,6.91L30,18.1l6.91-6.91,6.26,6.25"/><path class="cls-2" d="M13.22,34.91l6.22,6.24-1.15.32-6.36,1.7c-.64.17-.92-.11-.75-.74q1-3.62,1.94-7.24c0-.1.07-.2.1-.28"/><path class="cls-2" d="M44.62,16.1l-6.3-6.3c.53-.56,1.06-1.17,1.66-1.71a1,1,0,0,1,1.42.1q2.41,2.38,4.79,4.79a1.11,1.11,0,0,1,0,1.57c-.5.53-1,1-1.54,1.55"/><path class="cls-2" d="M18.14,13.31A1.16,1.16,0,0,1,17,12.16a1.18,1.18,0,1,1,1.18,1.15"/></g></g></svg>