<svg xmlns="http://www.w3.org/2000/svg" viewBox="0 0 879.52 446.75"><defs><style>.cls-1{fill:#8b965e;}.cls-2{fill:#e6f0b3;}</style></defs><title>Asset 3</title><g id="Layer_2" data-name="Layer 2"><g id="Layer_1-2" data-name="Layer 1"><path class="cls-1" d="M565.24,409.6,553,419.27l1.69,2.13,8.2.74-2.56,7.21,8.46.25c-.71,6.7-.71,6.7-9.64,10l16.64,2.87L564.14,452c3,1.17,6,2.3,9,3.65h80.21c-.43-2.64-2.26-6.82-8.82-15.09l1.89-.33c-1.09-.77-2.19-1.53-3.33-2.25,16.32-1.37,24.72-3.32,29.48-7.2-1.57-3.69-14.55-6.74-9.79-10.1l-22.61-6.63c12.95-2.54,23.35-4.43,33.63-6.75a88.49,88.49,0,0,1-14.28-10.48c2.73-.92,5.29-1.76,7.7-2.55-2.69-1-5.36-2-8-3l14.87-11.76-8.07-1.53c0-.54.06-1,.08-1.53l-14.11-2.35c12.8-4.51,12.8-4.51,13.81-13.73l-12.15-.35,3.66-9.92L640,348.67l20.81-15.74-.28-3.24-29.82-6.8,26.43-11.32q-.27-2.42-.54-4.84l-32.44-9.46q.12-2.57.24-5.14c11.26,6.95,19.73.71,29.31-9.76l-27.55-2.9.46-2.47,24.45-8.18q-.15-1.49-.29-3l-33-8.39.54-3.69,25.58.74c-3.43-3.67-4.31-4.78-5.31-5.64-1.36-1.17-2.87-2-4.21-3.24-4.22-3.78-3.78-7.51-1.35-13.39,1.46-3.54.11-9,0-13.62-2.71,1.11-6.15,1.26-8,3.59-2.21,2.86-3.05,7.57-4.49,11.48l-3.77-4.78q.26-6.4.52-12.79l1.55,1.75,8.34-10.94-1.44-3.33-8,3q.29-7.27.59-14.57l-3.36-.26c-.88,5.7-1.76,11.41-2.41,15.65l-7.06-4.19c.09,7.76.16,14.19.25,21.63l-9.14-3.41,1.26,14.41,14.32,7.84-.53,2.39-28.43-3.91q-.34,2.79-.67,5.59l28.6,9.93-29.84,5.12,8.56,10-13.9,9.53,17.61,15.85-1,2.88-20.7,2.07,12.05,12.67-12,1.09-.49,4,18.62,7L565.2,340q-.19,2.28-.37,4.55l26.76,5.11.48,2.29-33.78,11.4c6.16,12.92,19.57,7.71,30.34,18.06l-29.88,3.71-.55,2.85,17.66,10.78q0,1.52-.06,3L555.69,405l9.36,2.21Z" transform="translate(0 -9.65)"/><path class="cls-1" d="M565.36,454.59l-21-10.22.31-3.85L562,437.7,549.8,427.64l6.25-4.49-1.38-1.74-3.94-.36,2.25-1.78L543.28,407l12.41-2-11.4-2.7,18.43-8.25-.37-3.52-22.59-6.85q.09-1.87.17-3.73c7.83,5,13.74.5,20.43-7.12l-19.19-2.08.33-1.8,17-6-.2-2.16-23-6.07.38-2.68,17.82.52c-2.38-2.66-3-3.47-3.69-4.09-.94-.85-2-1.48-2.93-2.35-2.93-2.74-2.62-5.45-.93-9.73,1-2.57.09-6.55,0-9.89-1.89.81-4.29.92-5.55,2.62-1.54,2.08-2.14,5.5-3.14,8.34l-2.62-3.47q.19-4.65.37-9.3l1.08,1.27,5.82-8-1-2.42-5.61,2.15q.22-5.28.43-10.58l-2.34-.19c-.62,4.14-1.23,8.29-1.69,11.37l-4.91-3c.05,5.64.09,10.31.15,15.72l-6.36-2.47c.35,4.19.62,7.55.86,10.47l10,5.68-.37,1.74-19.8-2.81q-.24,2-.47,4.06l19.91,7.19-20.79,3.74,5.95,7.23-9.7,6.93,12.24,11.5-.73,2.1L503.28,388l8.38,9.2-8.37.8q-.18,1.46-.35,2.93l13,5.05-17.25,8.83q-.13,1.65-.27,3.31L517,421.77l.33,1.66-23.55,8.31c4.28,9.38,13.62,5.58,21.11,13.1l-20.82,2.72-.39,2.07,9.51,6.05h57Z" transform="translate(0 -9.65)"/><path class="cls-1" d="M142.21,428.1l-6.32,4.77,3.39,2.93L146,437l-3.6,1.55,5.74,5-11.56,2c2.55.79,5.11,1.62,7.62,2.56,1.5.56,2.52,2.06,3.77,3.13-1.26.88-2.44,2.43-3.79,2.53-2.24.18-4.49.34-6.77.49l2.92,1.49h100.7l-4.5-3.52,2.59-1.76c-2.94-2.1-5.88-4.57-9.07-6.68,2.37-.21,4.46-.45,6.51-.68l-5.18-6.18L256.91,433l0-2.26-11.88-6.87-17.88-5.48c10.82-2.24,19.87-4,28.55-6-5.1-1.39-9.82-2.45-12.63-8l16-5.07c-4.21-1.85-8.47-3.45-12.57-5.09l4-3.36-2.33-.42.28-3.38,14.79-6.84-24.05-4.17c12.94-4.8,12.94-4.8,14-14.57l-12.26-.36,3.71-10.51-17.58-1.59,21-16.7-.27-3.44-30.08-7.16,26.7-12c-.18-1.71-.36-3.42-.54-5.13l-32.72-10q.12-2.72.25-5.44c11.35,7.34,19.91.73,29.6-10.39l-27.8-3,.47-2.62,24.69-8.7-.29-3.15-33.31-8.84q.27-2,.55-3.91l25.82.75c-3.45-3.88-4.34-5.05-5.35-6-1.37-1.24-2.89-2.15-4.25-3.42-4.25-4-3.8-7.95-1.34-14.18,1.48-3.75.13-9.55.05-14.43-2.74,1.18-6.21,1.34-8,3.82-2.24,3-3.1,8-4.55,12.17l-3.8-5.06.55-13.56,1.57,1.85,8.43-11.61L213,195.41l-8.13,3.15q.31-7.71.62-15.43l-3.4-.28-2.46,16.58L192.51,195c.08,8.22.14,15,.21,22.92l-9.22-3.6c.5,6.1.9,11,1.24,15.26l14.43,8.29-.53,2.53L170,236.29l-.68,5.92,28.85,10.49L168,258.16l8.62,10.53-14.05,10.11,17.74,16.77-1.06,3.05-20.9,2.23,12.14,13.41-12.13,1.17-.5,4.27,18.78,7.36L151.6,340l-.39,4.82,27,5.37.48,2.42L144.58,364.7c6.19,13.68,19.74,8.14,30.59,19.09l-30.16,4-.56,3,17.8,11.4q0,1.61-.07,3.22l-30.34,5.21-2.15.87Z" transform="translate(0 -9.65)"/><path class="cls-1" d="M574.84,456.4c-.55-.27-1.1-.47-1.65-.71h-13" transform="translate(0 -9.65)"/><path class="cls-1" d="M262.67,455.69H241.06" transform="translate(0 -9.65)"/><path class="cls-1" d="M336.36,450.29l-28.88-8.05c10.53-1.93,18.92-3.36,27.27-5.15,1.16-.25,2.11-2.32,3.15-3.55-1.13-1.26-2.09-3.08-3.43-3.67-4-1.77-8.13-3.06-12.07-4.49l13.06-9.77-18.76-3c10-3.33,10-3.33,10.81-10.18l-9.53-.28,2.85-7.36-13.67-1.15L323.47,382l-.22-2.41-23.41-5.09,20.72-8.37-.43-3.59-25.46-7.06q.09-1.9.18-3.81c8.84,5.17,15.48.55,23-7.21l-21.62-2.18.36-1.83,19.17-6q-.12-1.1-.24-2.21l-25.92-6.27.41-2.74,20.07.59c-2.7-2.73-3.39-3.55-4.18-4.19-1.07-.87-2.26-1.51-3.31-2.41-3.32-2.81-3-5.58-1.08-9.94,1.14-2.62.07-6.69,0-10.11-2.13.83-4.82.92-6.24,2.66-1.73,2.12-2.38,5.61-3.5,8.52l-3-3.55q.19-4.75.38-9.5l1.22,1.3,6.52-8.11L295.76,286l-6.31,2.18q.22-5.4.44-10.81l-2.64-.2-1.86,11.61-5.55-3.12c.08,5.76.15,10.53.23,16.06l-7.18-2.55,1,10.7,11.24,5.84-.41,1.77-22.31-2.93-.52,4.15,22.46,7.41L261,329.85l6.73,7.4-10.89,7.05,13.84,11.79-.82,2.14-16.24,1.51,9.48,9.42-9.43.79-.38,3,14.62,5.2-4.61,2.13h.06l-12.81,10.63,18.67,3.4.38,1.7-10.53,3.35c1,.43,2,.79,2.93,1.27,1.71.84,2.94,3.43,4.39,5.22-1.35,1.76-2.58,4.72-4.07,5.08-2.17.52-4.36,1-6.56,1.51,3.72,1,7.64,2.2,11.2,5.44l-23.43,2.72-.43,2.12,2,1.15,19.22,5.89c-3,7.8-9.5,11.17-27.7,13.29l4.86,5.8-2.3,1.56c5.41,3.87,10.78,6.45,17.61,2.86,1.71-.9,5.86.79,5.9,1.65,0,.24,0,.51,0,.77h68.86A10.79,10.79,0,0,0,336.36,450.29Z" transform="translate(0 -9.65)"/><path class="cls-1" d="M112.63,455.66c9.36-.54,17.26-.95,24.81-1.45l-7.06-3.6q.16-2,.32-4.08l5.92-1c-2-.63-4.06-1.24-6-1.87l11.86-5.09-3.16-2.74-14.65-2.57c11.69-1.84,11.69-1.84,12.9-7.13l-10.94-.95,3.62-5.53-15.66-1.95,15.14-6.18-.34-.45,2.48-.43,2-.81q-.07-1-.14-1.9L107,402.14l24.2-5-.32-2.84L102,386.87l.38-3c9.92,4.72,17.76,1.62,26.74-3.88l-24.74-3.36.5-1.4L127.16,372l-.17-1.74L97.5,363.38l.6-2.11,23,2c-3-2.33-3.73-3-4.6-3.59-1.19-.76-2.52-1.36-3.69-2.13-3.68-2.45-3.16-4.59-.78-7.85,1.43-2,.39-5.22.47-7.9-2.48.48-5.59.35-7.29,1.6-2.09,1.53-3,4.21-4.42,6.39l-3.24-3,.89-7.4,1.34,1.11,7.87-5.84-1.19-2-7.35,1.23q.5-4.21,1-8.42l-3-.36L94.44,334l-6.23-2.86c-.18,4.51-.32,8.24-.49,12.57l-8.13-2.54.66,8.44L92.91,355l-.55,1.35-25.5-4-.78,3.21,25.46,7.51-27.07,1.15,7.38,6.3L59,375.23,74.35,385.5l-1,1.61L54.58,387,65,395.14,54.16,395l-.58,2.31,16.56,5.18-22.71,5.53-.49,2.62,24,4.6.36,1.36-30.83,4.56c5.13,7.87,17.39,5.66,26.76,12.33l-27.06.34-.59,1.62,15.56,7.34-.16,1.76-29.48,1.08,10.89,10h76.41Z" transform="translate(0 -9.65)"/><path class="cls-1" d="M140.36,455.69H112.77" transform="translate(0 -9.65)"/><path class="cls-1" d="M861.77,449l-.37-1.87-22-2.81,18.6-7.58-.65-2.79-24.07-4.25q0-1.5-.1-3c8.54,3.6,14.37-.34,20.78-6.79l-20.17-.63q.11-.73.21-1.45l17.33-5.68-.37-1.72-24.44-3.61.19-2.16,18.62-.54c-2.68-2-3.38-2.61-4.15-3.07-1-.63-2.2-1.07-3.23-1.72-3.26-2-3.14-4.21-1.69-7.72.87-2.11-.4-5.24-.71-7.91-1.91.75-4.4,1-5.59,2.39-1.45,1.75-1.82,4.51-2.65,6.83l-3-2.63q-.15-3.73-.3-7.45l1.22,1,5.48-6.67-1.22-1.88-5.69,2-.34-8.48-2.46,0c-.34,3.35-.67,6.69-.92,9.18l-5.35-2.16c.48,4.5.87,8.23,1.32,12.55l-6.82-1.63,1.68,8.32,10.81,4-.25,1.41-20.86-1.18-.19,3.27,21.31,4.68-21.41,4.11,6.74,5.45-9.6,6.06,13.63,8.53-.61,1.71-14.93,2,9.42,6.9L796.28,443l-.15,2.36,13.9,3.34-15.16,7H852.1Z" transform="translate(0 -9.65)"/><path class="cls-1" d="M456.65,444.16l-29.82-6.8L453.26,426q-.27-2.42-.54-4.84l-32.44-9.46q.12-2.57.24-5.14c11.26,6.95,19.73.71,29.31-9.76l-27.55-2.9.46-2.47,24.45-8.18q-.15-1.49-.29-3l-33-8.39.54-3.69L440,369c-3.43-3.66-4.31-4.78-5.31-5.64-1.36-1.17-2.87-2-4.21-3.24-4.22-3.78-3.78-7.51-1.35-13.39,1.46-3.54.11-9,0-13.62-2.71,1.11-6.15,1.25-8,3.59-2.21,2.86-3.05,7.57-4.49,11.48l-3.77-4.78q.26-6.4.52-12.79l1.55,1.75,8.34-10.94-1.44-3.33-8,3q.29-7.28.59-14.57l-3.36-.26-2.41,15.65-7.06-4.19c.09,7.76.16,14.19.25,21.63l-9.14-3.41c.51,5.77.91,10.4,1.26,14.41l14.32,7.84-.53,2.39-28.43-3.91q-.34,2.79-.67,5.59l28.6,9.94-29.84,5.12,8.56,10-13.9,9.53,17.61,15.85-1,2.88-20.7,2.07L380,430.21l-12,1.09-.49,4,18.62,7-24.75,12.13c0,.42-.07.84-.1,1.27H446l11-8.28Q456.79,445.79,456.65,444.16Z" transform="translate(0 -9.65)"/><path class="cls-1" d="M674.93,455.69H653.39" transform="translate(0 -9.65)"/><path class="cls-1" d="M780.32,435.89q-6.14-9.39-19.72-11,36.76-18.38-7.23-17.16,14.43-1.89,13.81-13.74c-30-.87,12.36-8.44-25.92-11.8,28.77-21.76,29.29-17-9.28-25.79,68.58-29.37-7.78.89-6.31-30.77Q745,332.91,755,315.93c-36.28-3.81-35.8-2.45-2.64-13.55-1.15-11.66-73.1-16.23-7.2-14.31-11.46-12.25-10.54-19.53-10.85-35.88q-12.83,2.8-12.44,15.07-8.09-7.22-3.26-17.57c1.68,1.89,13.7-23.14-2.38-24.4-2,13-16.74,27-18.36,29.68-14,23.18,55,30.12-13.38,20.73q-5.29,17.58,27.93,15.53c-60,10.29-2.48,2.19-35.18,24.6,48.58,43.74-27.44-3.69,7.91,33.48-22.44,2-10.86,5.74,6.11,12.1-16.48.73-24.76,5.82-25,15.15l9.79,1.63-1.8,1.42c28.33,5.32,24.2,4.62-6.9,14.72,2.48.93,5,1.91,7.4,3.05,1.7.79,2.92,3.24,4.36,4.93-1.34,1.66-2.55,4.45-4,4.79l-1.15.25a96.73,96.73,0,0,0,16.06,7.58c-17,2.12-24.55,4-27.08,5.79L677,424.88a14.54,14.54,0,0,1-4.39,5.95c1.14,2.68-3.85,5.71-26.15,9.45,7.5,5.36,14,11.34,23.13,6.79,1.69-.85,5.81.75,5.85,1.57a28.15,28.15,0,0,1-.52,7.06h94l-27.36-8C752.94,445.43,773.13,444.81,780.32,435.89Z" transform="translate(0 -9.65)"/><path class="cls-1" d="M646.47,440.28c22.3-3.74,27.3-6.76,26.15-9.45-4.76,3.88-13.16,5.83-29.48,7.2C644.28,438.74,645.39,439.51,646.47,440.28Z" transform="translate(0 -9.65)"/><path class="cls-1" d="M259.06,399.37,269.59,396l-.38-1.7-18.67-3.4-4,3.36C250.59,395.92,254.85,397.51,259.06,399.37Z" transform="translate(0 -9.65)"/><path class="cls-1" d="M112.63,455.66l.14,0h27.58l-2.92-1.49C129.89,454.71,122,455.11,112.63,455.66Z" transform="translate(0 -9.65)"/><path class="cls-1" d="M662.84,420.73c2.53-1.79,10-3.67,27.08-5.79a96.73,96.73,0,0,1-16.06-7.58c-10.27,2.31-20.68,4.21-33.63,6.75Z" transform="translate(0 -9.65)"/><path class="cls-1" d="M550.73,421l3.94.36L553,419.27Z" transform="translate(0 -9.65)"/><path class="cls-1" d="M142.21,428.1l-12.51-16.6-15.14,6.18,15.66,1.95-3.62,5.53,10.94.95c-1.21,5.29-1.21,5.29-12.9,7.13l14.65,2.57-3.39-2.93Z" transform="translate(0 -9.65)"/><path class="cls-1" d="M142.43,438.54l-11.86,5.09c2,.63,4,1.24,6,1.87l11.56-2Z" transform="translate(0 -9.65)"/><path class="cls-1" d="M239.15,450.42l2.3-1.56-4.86-5.8c-2.05.24-4.15.47-6.51.68C233.27,445.84,236.22,448.32,239.15,450.42Z" transform="translate(0 -9.65)"/><path class="cls-1" d="M667.28,394.33c31.1-10.11,35.23-9.41,6.9-14.72l-14.87,11.76C661.91,392.36,664.59,393.31,667.28,394.33Z" transform="translate(0 -9.65)"/><path class="cls-1" d="M245.07,423.87l-2-1.15.43-2.12,23.43-2.72c-3.57-3.24-7.48-4.43-11.2-5.44-8.68,1.94-17.73,3.72-28.55,6Z" transform="translate(0 -9.65)"/><path class="cls-2" d="M796.13,445.37l.15-2.36,8.67-1.09-9.42-6.9,14.93-2,.61-1.71-13.63-8.53,9.6-6.06-6.74-5.45,21.41-4.11-21.31-4.68.19-3.27,20.86,1.18.25-1.41-10.81-4-1.68-8.32,6.82,1.63c-.46-4.32-.85-8-1.32-12.55l5.35,2.16c.25-2.49.58-5.83.92-9.18l2.46,0,.34,8.48,5.69-2,1.22,1.88-5.48,6.67-1.22-1q.15,3.72.3,7.45l3,2.63c.84-2.32,1.2-5.09,2.65-6.83,1.19-1.43,3.68-1.64,5.59-2.39.31,2.67,1.58,5.8.71,7.91-1.45,3.51-1.57,5.69,1.69,7.72,1,.65,2.18,1.09,3.23,1.72.77.46,1.47,1.07,4.15,3.07l-18.62.54-.19,2.16,24.44,3.61.37,1.72L834,417.8q-.1.73-.21,1.45l20.17.63c-6.41,6.45-12.23,10.39-20.78,6.79q0,1.5.1,3l24.07,4.25.65,2.79-18.6,7.58,22,2.81.37,1.87-9.67,6.72h27.42s-83-357.08-447.23-357.08S0,455.69,0,455.69H36.36l-10.89-10,29.48-1.08.16-1.76-15.56-7.34.59-1.62,27.06-.34c-9.37-6.67-21.63-4.46-26.76-12.33l30.83-4.56-.36-1.36-24-4.6.49-2.62,22.71-5.53-16.56-5.18.58-2.31,10.87.1L54.58,387l18.73.06,1-1.61L59,375.23l12.85-4.68-7.38-6.3,27.07-1.15-25.46-7.51.78-3.21,25.5,4,.55-1.35L80.26,349.6l-.66-8.44,8.13,2.54c.17-4.33.31-8.06.49-12.57L94.44,334l2.68-8.93,3,.36q-.5,4.21-1,8.42l7.35-1.23,1.19,2-7.87,5.84-1.34-1.11-.89,7.4,3.24,3c1.42-2.18,2.33-4.86,4.42-6.39,1.71-1.25,4.81-1.12,7.29-1.6-.07,2.68,1,5.94-.47,7.9-2.38,3.27-2.9,5.4.78,7.85,1.17.78,2.51,1.37,3.69,2.13.88.56,1.63,1.26,4.6,3.59l-23-2-.6,2.11L127,370.26l.17,1.74-22.31,3.26-.5,1.4L129.1,380c-9,5.49-16.82,8.59-26.74,3.88l-.38,3,28.93,7.47.32,2.84-24.2,5,26.66,5.77q.07.95.14,1.9l-2,.81,30.34-5.21q0-1.61.07-3.22l-17.8-11.4.56-3,30.16-4c-10.85-11-24.39-5.41-30.59-19.09l34.12-12.12-.48-2.42-27-5.37.39-4.82,25-12.88-18.78-7.36.5-4.27,12.13-1.17-12.14-13.41,20.9-2.23,1.06-3.05-17.74-16.77,14.05-10.11L168,258.16l30.13-5.47-28.85-10.49.68-5.92,28.69,4.1.53-2.53-14.43-8.29c-.35-4.24-.75-9.16-1.24-15.26l9.22,3.6c-.07-7.89-.13-14.7-.21-22.92l7.12,4.43,2.46-16.58,3.4.28q-.31,7.72-.62,15.43l8.13-3.15,1.44,3.53L206,210.54l-1.57-1.85-.55,13.56,3.8,5.06c1.46-4.14,2.32-9.13,4.55-12.17,1.83-2.48,5.3-2.63,8-3.82.08,4.88,1.43,10.68-.05,14.43-2.46,6.24-2.91,10.19,1.34,14.18,1.35,1.27,2.88,2.19,4.25,3.42,1,.91,1.9,2.09,5.35,6l-25.82-.75q-.27,2-.55,3.91l33.31,8.84.29,3.15-24.69,8.7-.47,2.62,27.8,3c-9.69,11.11-18.26,17.73-29.6,10.39q-.12,2.72-.25,5.44l32.72,10c.18,1.71.36,3.42.54,5.13l-26.7,12,30.08,7.16.27,3.44-21,16.7,17.58,1.59-3.71,10.51,12.26.36c-1,9.77-1,9.77-14,14.57l24.05,4.17,4.61-2.13-14.62-5.2.38-3,9.43-.79-9.48-9.42,16.24-1.51.82-2.14L256.81,344.3l10.89-7.05-6.73-7.4,23.4-3.76-22.46-7.41.52-4.15,22.31,2.93.41-1.77-11.24-5.84-1-10.7,7.18,2.55c-.08-5.53-.15-10.3-.23-16.06l5.55,3.12,1.86-11.61,2.64.2q-.22,5.41-.44,10.81l6.31-2.18,1.13,2.47-6.52,8.11-1.22-1.3q-.19,4.75-.38,9.5l3,3.55c1.12-2.9,1.77-6.39,3.5-8.52,1.41-1.74,4.11-1.83,6.24-2.66.08,3.42,1.14,7.48,0,10.11-1.89,4.36-2.23,7.13,1.08,9.94,1.05.89,2.24,1.54,3.31,2.41.79.64,1.48,1.47,4.18,4.19L290,323.2l-.41,2.74,25.92,6.27q.12,1.1.24,2.21l-19.17,6-.36,1.83,21.62,2.18c-7.5,7.77-14.13,12.38-23,7.21q-.09,1.9-.18,3.81l25.46,7.06.43,3.59-20.72,8.37,23.41,5.09.22,2.41-16.3,11.65,13.67,1.15L318,402.19l9.53.28c-.77,6.85-.77,6.85-10.81,10.18l18.76,3-13.06,9.77c3.93,1.42,8.07,2.72,12.07,4.49,1.33.59,2.3,2.41,3.43,3.67-1,1.23-2,3.3-3.15,3.55-8.35,1.79-16.74,3.21-27.27,5.15l28.88,8.05a10.79,10.79,0,0,1-4.83,5.4h29.7c0-.42.07-.84.1-1.27l24.75-12.13-18.62-7,.49-4,12-1.09-12.05-12.67,20.7-2.07,1-2.88-17.61-15.85L386,387.2l-8.56-10,29.84-5.12-28.6-9.94q.33-2.79.67-5.59l28.43,3.91.53-2.39L394,350.28c-.35-4-.76-8.64-1.26-14.41l9.14,3.41c-.09-7.45-.16-13.87-.25-21.63l7.06,4.19,2.41-15.65,3.36.26q-.29,7.29-.59,14.57l8-3,1.44,3.33L415,332.34l-1.55-1.75q-.26,6.4-.52,12.79l3.77,4.78c1.43-3.91,2.28-8.62,4.49-11.48,1.81-2.34,5.24-2.48,8-3.59.09,4.61,1.44,10.08,0,13.62-2.42,5.88-2.87,9.61,1.35,13.39,1.34,1.2,2.85,2.07,4.21,3.24,1,.86,1.88,2,5.31,5.64l-25.58-.74-.54,3.69,33,8.39q.15,1.49.29,3l-24.45,8.18-.46,2.47,27.55,2.9c-9.58,10.48-18.05,16.71-29.31,9.76q-.12,2.57-.24,5.14l32.44,9.46q.27,2.42.54,4.84l-26.43,11.32,29.82,6.8q.14,1.63.28,3.25l-11,8.28h57.25l-9.51-6.05.39-2.07,20.82-2.72c-7.49-7.52-16.84-3.72-21.11-13.1l23.55-8.31-.33-1.66-18.64-3.69q.13-1.66.27-3.31l17.25-8.83-13-5.05q.17-1.47.35-2.93l8.37-.8-8.38-9.2,14.43-1.52.73-2.1-12.24-11.5,9.7-6.93-5.95-7.23,20.79-3.74-19.91-7.19q.23-2,.47-4.06l19.8,2.81.37-1.74-10-5.68c-.24-2.91-.52-6.28-.86-10.47l6.36,2.47c-.05-5.41-.09-10.08-.15-15.72l4.91,3c.46-3.08,1.08-7.23,1.69-11.37l2.34.19q-.21,5.3-.43,10.58l5.61-2.15,1,2.42-5.82,8-1.08-1.27q-.19,4.65-.37,9.3l2.62,3.47c1-2.84,1.6-6.26,3.14-8.34,1.26-1.7,3.65-1.81,5.55-2.62.06,3.35,1,7.32,0,9.89-1.7,4.28-2,7,.93,9.73.93.87,2,1.5,2.93,2.35.7.63,1.31,1.43,3.69,4.09l-17.82-.52-.38,2.68,23,6.07.2,2.16-17,6-.33,1.8,19.19,2.08c-6.69,7.62-12.6,12.16-20.43,7.12q-.08,1.87-.17,3.73l22.59,6.85.37,3.52-18.43,8.25,11.4,2.7,20.1-3.26q0-1.52.06-3L558.2,387.93l.55-2.85,29.88-3.71c-10.77-10.36-24.18-5.15-30.34-18.06l33.78-11.4-.48-2.29-26.76-5.11q.19-2.28.37-4.55l24.75-12.13-18.62-7,.49-4,12-1.09-12.05-12.67,20.7-2.07,1-2.88-17.61-15.85,13.9-9.53-8.56-10,29.84-5.12-28.6-9.93q.33-2.8.67-5.59L611.61,246l.53-2.39-14.32-7.84-1.26-14.41,9.14,3.41c-.09-7.45-.16-13.87-.25-21.63l7.06,4.19c.65-4.24,1.53-9.95,2.41-15.65l3.36.26q-.29,7.29-.59,14.57l8-3,1.44,3.33-8.34,10.94-1.55-1.75q-.26,6.4-.52,12.79l3.77,4.78c1.43-3.91,2.28-8.62,4.49-11.48,1.81-2.34,5.24-2.48,8-3.59.09,4.61,1.44,10.08,0,13.62-2.42,5.88-2.87,9.61,1.35,13.39,1.34,1.2,2.85,2.07,4.21,3.24,1,.86,1.88,2,5.31,5.64l-25.58-.74-.54,3.69,33,8.39q.15,1.49.29,3L626.6,277l-.46,2.47,27.55,2.9c-9.58,10.48-18.05,16.71-29.31,9.76q-.12,2.57-.24,5.14l32.44,9.46q.27,2.42.54,4.84l-26.43,11.32,29.82,6.8.28,3.24L640,348.67l17.42,1.53-3.66,9.92,12.15.35c-1,9.22-1,9.22-13.81,13.73l14.11,2.35c.29-9.33,8.57-14.42,25-15.15-17-6.36-28.55-10.07-6.11-12.1-35.35-37.17,40.67,10.26-7.91-33.48,32.7-22.41-24.81-14.31,35.18-24.6q-33.23,2.06-27.93-15.53c68.33,9.39-.58,2.45,13.38-20.73,1.62-2.68,16.36-16.66,18.36-29.68,16.07,1.26,4.05,26.28,2.38,24.4q-4.83,10.35,3.26,17.57-.38-12.27,12.44-15.07c.31,16.35-.6,23.63,10.85,35.88-65.9-1.92,6.05,2.65,7.2,14.31-33.16,11.1-33.64,9.73,2.64,13.55q-10,17-29.31,9.76c-1.47,31.66,74.88,1.39,6.31,30.77,38.57,8.8,38.05,4,9.28,25.79,38.27,3.35-4.07,10.92,25.92,11.8q.62,11.85-13.81,13.74,44-1.22,7.23,17.16,13.59,1.56,19.72,11c-7.19,8.92-27.38,9.55-38.8,11.78l27.36,8h26l15.16-7Z" transform="translate(0 -9.65)"/><path class="cls-1" d="M36.36,455.69l.09.08" transform="translate(0 -9.65)"/><path class="cls-1" d="M241.06,455.69H140.36" transform="translate(0 -9.65)"/><path class="cls-1" d="M148,451.18c-1.24-1.07-2.26-2.56-3.77-3.13-2.51-.94-5.06-1.76-7.62-2.56l-5.92,1q-.16,2-.32,4.08l7.06,3.6c2.28-.15,4.53-.31,6.77-.49C145.55,453.61,146.74,452.06,148,451.18Z" transform="translate(0 -9.65)"/><path class="cls-1" d="M139.28,435.8l3.16,2.74L146,437Z" transform="translate(0 -9.65)"/><path class="cls-1" d="M129.69,411.5l2.15-.87-2.48.43Z" transform="translate(0 -9.65)"/><path class="cls-1" d="M331.53,455.69H262.67" transform="translate(0 -9.65)"/><path class="cls-1" d="M256.91,433l-25.49,3.87,5.18,6.18c18.2-2.12,24.65-5.5,27.7-13.29l-19.22-5.89L257,430.75Z" transform="translate(0 -9.65)"/><path class="cls-1" d="M248.2,390.5l2.33.42,12.81-10.63h-.06l-14.79,6.84Z" transform="translate(0 -9.65)"/><path class="cls-1" d="M262.67,455.69c0-.25,0-.52,0-.77,0-.87-4.19-2.55-5.9-1.65-6.83,3.59-12.2,1-17.61-2.86l-2.59,1.76,4.5,3.52" transform="translate(0 -9.65)"/><path class="cls-1" d="M255.74,412.44c2.2-.49,4.39-1,6.56-1.51,1.49-.36,2.72-3.32,4.07-5.08-1.45-1.79-2.68-4.38-4.39-5.22-1-.47-2-.84-2.93-1.27l-16,5.07C245.92,410,250.63,411,255.74,412.44Z" transform="translate(0 -9.65)"/><path class="cls-1" d="M446,455.69H361.23" transform="translate(0 -9.65)"/><path class="cls-1" d="M560.17,455.69h-57" transform="translate(0 -9.65)"/><path class="cls-1" d="M653.39,455.69H573.19" transform="translate(0 -9.65)"/><path class="cls-1" d="M553,419.27l12.27-9.67-.19-2.36L555.69,405l-12.41,2Z" transform="translate(0 -9.65)"/><path class="cls-1" d="M575.77,442.45l-16.64-2.87c8.93-3.29,8.93-3.29,9.64-10l-8.46-.25,2.56-7.21-8.2-.74,1.38,1.74-6.25,4.49L562,437.7l-17.31,2.82-.31,3.85,21,10.22-5.19,1.1h13c-3-1.35-6.09-2.48-9-3.65Z" transform="translate(0 -9.65)"/><path class="cls-1" d="M768.89,455.69h-94" transform="translate(0 -9.65)"/><path class="cls-1" d="M653.39,455.69h21.54a28.15,28.15,0,0,0,.52-7.06c0-.82-4.16-2.42-5.85-1.57-9.11,4.55-15.63-1.43-23.13-6.79l-1.89.33C651.13,448.88,653,453.06,653.39,455.69Z" transform="translate(0 -9.65)"/><path class="cls-1" d="M673.86,407.35l1.15-.25c1.48-.34,2.69-3.13,4-4.79-1.44-1.69-2.66-4.14-4.36-4.93-2.44-1.14-4.92-2.12-7.4-3.05-2.41.78-5,1.62-7.7,2.55A88.49,88.49,0,0,0,673.86,407.35Z" transform="translate(0 -9.65)"/><path class="cls-1" d="M674.18,379.6l1.8-1.42-9.79-1.63c0,.51-.11,1-.08,1.53Z" transform="translate(0 -9.65)"/><path class="cls-1" d="M672.63,430.83a14.54,14.54,0,0,0,4.39-5.95l-14.18-4.15C658.08,424.09,671.05,427.14,672.63,430.83Z" transform="translate(0 -9.65)"/><path class="cls-1" d="M852.1,455.69H794.87" transform="translate(0 -9.65)"/><path d="M105.68,210.73a3.18,3.18,0,0,1-1.84-1l-6.59-7.1-6.59-7.1-12-12.58q-8.23-8.25-12.16-12.47l-2-2.41-4.82-5.18q-8-8.61-8.22-8.41c-4.89,4.56-7.31,6.88-12.1,11.62a5.27,5.27,0,0,1-1.84,1.21,1.35,1.35,0,0,1-1.53-.16,1.39,1.39,0,0,1-.53-1.16,7.06,7.06,0,0,1,1.32-2.08,43.26,43.26,0,0,1,4-4.42c4.29-4.16,6.46-6.21,10.84-10.24,4.79-4.46,7.2-6.65,12.09-10.95A4.76,4.76,0,0,1,65.79,137a1.56,1.56,0,0,1,1.42.64q1.06,1.24-1,3.06c-2,1.73-3,2.61-5,4.37s-2.9,2.59-4.83,4.34l-.91,1,4.36,4.57,5.72,6.27L95.3,193.87l6.09,6.68,5.52,5.87.15.16a7.26,7.26,0,0,1,.9,1.17,2,2,0,0,1,.25,1,1.68,1.68,0,0,1-.57,1.26A2.27,2.27,0,0,1,105.68,210.73Z" transform="translate(0 -9.65)"/><path d="M135.93,185.75a13.7,13.7,0,0,1-4.65.28c-1.7-.24-4.74-2.57-9.06-6.82s-9.12-9.35-14-15.26c-1.1-1.32-2-2.34-2.57-3-6.95-7.62-13.67-16.71-21.25-24.38l-.29-1.73c1.85-1.23,4-.36,6.32,2.59q9.19,11.12,18.36,22.25c1.27,1.59,3.85,4.55,7.72,8.59,3.49,3.64,6.18,6.49,7.8,8.53,5.15,6.47,10.17,7.72,15.13,3.92,3-2.33.44-9.89-7.72-22.81l-1.19-1.83C122.08,144,113.68,131.84,105,119.92l-.7-.7a3.11,3.11,0,0,1-.7-.7c-.47-.64-.06-1.45,1.25-2.41.93-.68,1.74-1,2.12-.74a13.24,13.24,0,0,1,2.47,2.92q4.85,6.7,5.84,9.48l.5.45A34.92,34.92,0,0,1,118,132l2.34,3.68.64.88a3.75,3.75,0,0,1,.75.8c.88,1.52,2,3,2.73,4.21.24.4.68,1.14,1.3,2,3.94,5.55,7.33,10.62,10.16,14.82a48.94,48.94,0,0,1,7,14.71c1.26,4.82.33,8.44-2.89,10.92A9.94,9.94,0,0,1,135.93,185.75Z" transform="translate(0 -9.65)"/><path d="M191.29,148.15l-.7-.35a5.94,5.94,0,0,1-1.67-1.29,5.42,5.42,0,0,0-1.19-1.07l-.06-.34a57.57,57.57,0,0,0-10-8.62c-1.94-1.48-2.92-2.21-4.87-3.68a53.89,53.89,0,0,1-5-3.48l-2.25-1.69c-9.09-6.74-19.38-15.88-30.37-19.56a21.67,21.67,0,0,0,3.24,7q1.37,2.1,2.5,3.57l2.44,3.48,1.32,2.26a23.25,23.25,0,0,0,1.32,2.26,27.76,27.76,0,0,0,2.49,3.32l2.13,2.77-.33.22q10,15.22,11.71,16.28l5.35,8.21a4.6,4.6,0,0,1,1.66,1.65,2.06,2.06,0,0,1,.26,1.65,2.32,2.32,0,0,1-1,1.46q-2.16,1.42-5.41-3.47l-1.72-3a23.79,23.79,0,0,0-1.78-3.13q-2.89-4.35-9-12.85t-9-12.83q-1.75-2.63-5-8.29t-5-8.21l-.78-1.18c-2-3-2.55-5.37-1.72-7.21l.53,0,1.07-1a3.17,3.17,0,0,1,1.42-.15,1.24,1.24,0,0,1,1,.52l.59.39a1.42,1.42,0,0,0,.41.38c4.06,3.51,10.9,7.72,20,13,9.49,5.51,15.55,9.64,18.14,11.77,2,1.68,3.77,3.33,5.21,4.76q6.79,6.74,12.07,9.47l.05-.41C181.56,122.5,172.18,105,162.56,87.7l-.76-1.07a5.82,5.82,0,0,1-.82-1.16q-1.13-2,.58-3a2.85,2.85,0,0,1,2.37-.21,3.12,3.12,0,0,1,1.85,1.46l3.54,6.38-.18,1.1c5.44,9.94,10.35,20.18,15.27,30.38,6.85,14.2,10.34,22.08,10.31,23.68l-1.59,1.41.05.09-.16,0-.9.89Z" transform="translate(0 -9.65)"/><path d="M241.13,123.05l-.65-.43a6,6,0,0,1-1.5-1.48,5.48,5.48,0,0,0-1.05-1.2l0-.35a58.18,58.18,0,0,0-8.89-9.76c-1.75-1.7-2.62-2.55-4.39-4.24a54.23,54.23,0,0,1-4.5-4.05l-2-1.95c-8.2-7.78-17.26-18.07-27.69-23.09a22,22,0,0,0,2.41,7.31q1.12,2.24,2.06,3.84l2,3.74,1,2.4a23.62,23.62,0,0,0,1,2.4,28.19,28.19,0,0,0,2.08,3.59l1.78,3-.35.17q8.1,16.28,9.71,17.55l4.35,8.78a4.66,4.66,0,0,1,1.45,1.83,2.07,2.07,0,0,1,.08,1.66,2.27,2.27,0,0,1-1.18,1.32q-2.28,1.14-4.93-4.1l-1.35-3.22a24.24,24.24,0,0,0-1.4-3.32q-2.36-4.66-7.42-13.82t-7.44-13.81q-1.43-2.82-4-8.82t-4-8.73L185.75,77c-1.6-3.17-1.91-5.62-.9-7.35l.52.11,1.15-.82a3.11,3.11,0,0,1,1.41,0,1.24,1.24,0,0,1,.93.63l.54.46a1.44,1.44,0,0,0,.36.43c3.6,4,9.86,9,18.19,15.31,8.72,6.62,14.22,11.44,16.53,13.87,1.81,1.91,3.34,3.76,4.6,5.34q5.93,7.5,10.82,10.85l.1-.4c-5.59-19-12.87-37.48-20.41-55.79L219,58.54a5.89,5.89,0,0,1-.68-1.25q-.89-2.11.9-2.86a2.81,2.81,0,0,1,2.36.08,3.14,3.14,0,0,1,1.66,1.67L226,62.94l-.3,1.06c4.25,10.5,7.94,21.25,11.65,31.94,5.16,14.9,7.72,23.12,7.51,24.7l-1.72,1.2,0,.1-.15-.05-1,.78Z" transform="translate(0 -9.65)"/><path d="M264.37,112.34l-.49-1.33a6.19,6.19,0,0,0-.34-1.27l-.61-.24a11.45,11.45,0,0,0-.63-4.52q-.87-2.35-2.84-6.61l-2.73-6.65c-1.26-3.4-3.11-8.59-5.3-15.45-2-6.11-3.64-11.38-5.19-15.61l-2.51-6q-1.27-2.66-2.52-6a2.7,2.7,0,0,1,.1-2.53,5.14,5.14,0,0,1,2.61-1.7,3.45,3.45,0,0,1,2.3-.13c.2,0,1.51-.32,3.92-.92a35.42,35.42,0,0,1,5.92-1c1.78-.13,2.78.11,3,.73s-.37,1.65-1.77,2.89c-5.36.34-9.09.94-11.15,1.68l-.42.85q.46.88,1.72,4.36c1.06,2.94,1.89,5.65,2.59,8s1.7,5.1,2.76,8q1,2.87,2.76,2.25l1.94-.8a21,21,0,0,1,2.06-.84c3.21-1.12,5-1,5.45.21a3.14,3.14,0,0,1,0,2.11,2.34,2.34,0,0,1-1.58,1.4,4.56,4.56,0,0,1-3.11.15l-4.1.87-.61.22-.43.73.11.31a83.69,83.69,0,0,1,3.16,8q1.44,4,2.5,7.31l2.51,7.31c1,2.66,2.13,5.38,3.3,8.07.66,1.51,1.4,2.45,2.26,2.72a7.09,7.09,0,0,0,4-.55l2-.81a23.29,23.29,0,0,1,2.25-.88c2.21-.74,3.46-.65,3.76.24.41,1.24-1.06,2.4-4.38,3.53-3.72,1.27-5.57,1.92-9.26,3.26A2.22,2.22,0,0,1,264.37,112.34Z" transform="translate(0 -9.65)"/><path d="M293.72,102.33a15,15,0,0,0-.8-3.51c-2.82-9.49-5.47-19.05-8.11-28.59-2.52-9.09-5-18.2-7.67-27.25l-.85-3.84-.53-3.25c-.14-.49.09-.82.71-1a8,8,0,0,1,1.94-.22h.43q.66,2.3,1.08,4.22L281.08,43l3.29,11.4c1,3.32,2.77,7.51,3.41,11.36a20.33,20.33,0,0,0,.54,2.34l.51,2.23q.48,2.13,1.12,4.32.7,2.41,1.39,4.36l1.42,4.46-.12.94.09-.14a.58.58,0,0,1,0,.45l.12.42a3,3,0,0,0,.78,1.36c1,4.06,1.53,6.09,2.55,10.14l.18.63a15.15,15.15,0,0,0,.72,2.06.57.57,0,0,0,.73.36c2.43-.61,3.64-.9,6.08-1.47,1.78-.48,3-.79,3.67-.93L308.8,97l.35-.09a1.73,1.73,0,0,1,1.31.28,1.77,1.77,0,0,1,.89,1.06c.22.84-.33,1.54-1.49,1.85s-4.53,1.06-9.58,2.5l.26,0a14.44,14.44,0,0,0-2.15.73,13.55,13.55,0,0,1-2,.81Q294.78,104.63,293.72,102.33Z" transform="translate(0 -9.65)"/><path d="M359.73,87.67c-.85-1.81-1.28-2.71-2.14-4.52-3.24-6.33-5.79-11.77-7.64-16.1-1-2.38-2.46-5.74-4.22-10-2-5-3.87-8.95-5.46-12l-1.17.87-1.55.94q3.86,20.59,7.71,41.19l.29,1.61a1.91,1.91,0,0,1-1.72,2.53,2.21,2.21,0,0,1-1.62-.25,1.71,1.71,0,0,1-.83-1.17l-.3-1.6c-1.55-8.66-2.32-13-3.86-21.65-.69-4.17-1-6.25-1.71-10.42-1.75-10.67-3.49-21.35-5.49-32l-2.59-13.8c-.12-.64.64-1.12,2.29-1.42a14.89,14.89,0,0,1,6.93.33,12.25,12.25,0,0,1,5.54,3.28,19.67,19.67,0,0,1,5.47,10.93,27,27,0,0,1-1,11.17q-.53,1.74-1.36,4a10.75,10.75,0,0,1-1.6,3.19c2.73,5.21,6.74,13.27,11.77,24.25,3.49,7.4,5.2,11.11,8.51,18.56a4.06,4.06,0,0,1,.28,1.17,3.28,3.28,0,0,1-.18,1.73,1.36,1.36,0,0,1-1.14.88A2.78,2.78,0,0,1,359.73,87.67Zm-19.82-47a20.54,20.54,0,0,0,2.93-4,14.42,14.42,0,0,0,.83-4.77,25.84,25.84,0,0,0-.22-5.48,23.79,23.79,0,0,0-3.37-8.71,10.14,10.14,0,0,0-3.59-3.86,6.34,6.34,0,0,0-4.53-.92l-.27,0a.67.67,0,0,1-.39.18l5.48,30.2C337.47,43.24,338.5,42.35,339.91,40.71Z" transform="translate(0 -9.65)"/><path d="M379,85.19a3.4,3.4,0,0,0-.94.21l-.95.11c-1.74.2-2.88,0-3.44-.7a1.54,1.54,0,0,1,.79-1.41l.53-.61,3.45-.39.43-.48.13-1,0-1.31q-.71-6.6-1.64-11.76l-.68-4c-.44-3.15-.67-4.72-1.11-7.87q-.46-4.22-1-12.7c-.44-5-.66-7.55-1.1-12.58a87.52,87.52,0,0,0-2-12.48,17.17,17.17,0,0,0-4.09.13l-1.47.28a13.65,13.65,0,0,1-1.74.32c-1.71.21-2.64-.29-2.8-1.52,0-.29.33-.63,1.11-1a6.34,6.34,0,0,1,2-.68c3.44-.42,7-.57,10.37-.72a29.51,29.51,0,0,1,6.34.37c1.66.29,2.54.83,2.6,1.63a2.32,2.32,0,0,1-.33.9l-3.09.5c-.67-.37-2-.47-4-.27l-.64.39q.5.93,1,5.7.72,7.15,1.17,12.9c.42,5.17.63,7.75,1,12.91.33,3.25,1,7.21,1.7,11.75.83,5.17,1.3,9.21,1.56,11.88l.14,1.41a12.76,12.76,0,0,0,.07,2,7.32,7.32,0,0,0,.66,3l-.1.23c.07.72,1,1,2.73.83a12.58,12.58,0,0,0,1.78-.27l1.79-.16c2.31-.2,3.51.22,3.59,1.23a2,2,0,0,1-.59,1.63,2.89,2.89,0,0,1-1.85.75,10.48,10.48,0,0,1-1.92-.05,11.52,11.52,0,0,0-2,.07,6,6,0,0,0-2.08.74,6.85,6.85,0,0,1-2.07.86C380.5,86.12,379.39,85.88,379,85.19Z" transform="translate(0 -9.65)"/><path d="M405.16,81.77c-.41-4.84-1.09-11.28-1.51-18.88q-.39-7.17-.57-12.83c-.23-5.13-.34-7.7-.57-12.83q-.45-8.26-1.65-20.4a2.6,2.6,0,0,1-1.34-2.11c0-.51.32-1.05,1.07-1.64a3.76,3.76,0,0,1,2.07-.93,3,3,0,0,1,2.09.77l1.54.91a16.37,16.37,0,0,0,3.15.52,19.21,19.21,0,0,1,3.28.54,25.48,25.48,0,0,1,5.51,3.22,53.56,53.56,0,0,0,4.5,3.18l-.13.22a9.74,9.74,0,0,0,2,2.8,27.61,27.61,0,0,1,2.42,3c1.44,3.33,2.15,7.64,2.17,12.94a21.87,21.87,0,0,1-.12,2.5c0,1,0,1.57,0,2.61,0,.35,0,.52,0,.87L429,47.35a6.06,6.06,0,0,0,.77,3.26c-.5,2.32-1.08,6.77-1.82,13.18a44.41,44.41,0,0,1-1.19,6,22,22,0,0,1-2,5.25c-2.05,3.58-5.47,6.64-10.2,9.27-3.32.11-5,.18-8.3.35C405.63,84.69,405.32,83.66,405.16,81.77Zm8.82-.61a13.38,13.38,0,0,1,1.51-1.47l.82-.57.94-.79c7-6.5,8.41-17.24,8.12-26.28l0-2.07a12.7,12.7,0,0,1-.15-1.85c-.25-4.39-.38-6.59-.64-11a27.19,27.19,0,0,0-4.83-13,15.65,15.65,0,0,0-5.57-5.35,13.27,13.27,0,0,0-7.3-1.85c-1.08,0-1.36,6.84-.67,20.19s1.65,27,3.35,40.49c0,.83,0,1.24,0,2.07l.49.2.3,1.4Z" transform="translate(0 -9.65)"/><path d="M451.24,83.47a7.71,7.71,0,0,1-3.7-4.77,57.4,57.4,0,0,1-1.89-11,144.76,144.76,0,0,1-1-17.12,79.46,79.46,0,0,1,.74-8.47c.39-2.73.58-4.1,1-6.83a105.19,105.19,0,0,1,1.9-12.3,14.8,14.8,0,0,1,4.17-7.26c2.12-2.06,5.33-3.18,9.63-3.3a15.23,15.23,0,0,1,2.19,0c2.82.17,4.19.78,4.12,1.79q0,.65-1,1.08a3.77,3.77,0,0,1-1.86.37l-1.35-.19L463,15.3a7.31,7.31,0,0,0-4.2,1,9.1,9.1,0,0,0-3.21,3.33,33.74,33.74,0,0,0-4,10.51A117.64,117.64,0,0,0,449.77,42c-.17,3.35-.26,5-.43,8.37-.13,3.55-.37,6.7.09,8a13.15,13.15,0,0,1,1,3.69c.14,1.64.23,3.88.29,6.71a27.36,27.36,0,0,0,.83,6.51,9.06,9.06,0,0,0,2.81,4.54A10.63,10.63,0,0,0,460.86,82,5.15,5.15,0,0,0,466,78.86a23.51,23.51,0,0,0,2.5-7.45c.47-3.22.83-6,1-8.22l.46-6c-.78-.79-2.22-1.26-4.31-1.4l-1-.07a8.31,8.31,0,0,1-1.39,0c-2-.13-3-.62-2.94-1.49.07-1.23,1.12-1.79,3.14-1.66,1.43.09,2.61.21,3.53.35l2.77.31a24.58,24.58,0,0,1,3.73,1.06c1,.38,1.45.82,1.41,1.32a20.37,20.37,0,0,1-1.1,3.95,19,19,0,0,0-1,4.07c-.26,3-.36,5.84-.45,8.26s-.33,5.32-.59,8.36c-4.39,3.42-8.52,5-12.55,4.77C455.62,84.86,453,84.34,451.24,83.47Z" transform="translate(0 -9.65)"/><path d="M485.43,85.7l.16-1.41a6.28,6.28,0,0,0,.27-1.28l-.43-.49a11.59,11.59,0,0,0,1.46-4.32q.29-2.49.46-7.18c.23-2.87.34-4.3.57-7.16.41-3.6,1.1-9.07,2.24-16.18,1-6.33,1.89-11.8,2.41-16.27.2-2.61.29-3.91.49-6.52q.07-3,.48-6.52a2.72,2.72,0,0,1,1.22-2.22,5.05,5.05,0,0,1,3.07-.35,3.39,3.39,0,0,1,2.09.92c.17.09,1.47.39,3.87.94a34.89,34.89,0,0,1,5.67,1.77c1.63.68,2.42,1.34,2.32,2s-1.07,1.31-2.87,1.78c-4.89-2.1-8.45-3.24-10.61-3.5l-.75.57q0,1-.44,4.66c-.38,3.1-.86,5.9-1.29,8.29s-.79,5.31-1.16,8.41q-.37,3,1.43,3.25l2.07.15a20.64,20.64,0,0,1,2.2.18c3.34.45,4.91,1.34,4.73,2.63a3.16,3.16,0,0,1-.92,1.9,2.32,2.32,0,0,1-2,.54A4.48,4.48,0,0,1,499.33,49l-4-1.06-.64-.08-.7.46,0,.32a84.53,84.53,0,0,1-.8,8.57q-.52,4.21-1.07,7.65L491,72.55c-.34,2.81-.53,5.76-.7,8.69-.1,1.64.14,2.81.78,3.44a7,7,0,0,0,3.8,1.32l2.15.18a22.83,22.83,0,0,1,2.38.22c2.29.33,3.36,1,3.22,1.9-.2,1.29-2,1.67-5.46,1.19-3.85-.54-5.78-.79-9.64-1.24A2.21,2.21,0,0,1,485.43,85.7Z" transform="translate(0 -9.65)"/><path d="M545.09,45.82l.94-4.25a81.73,81.73,0,0,1,4.77-15.22,25.13,25.13,0,0,1,3.75-6.3,12.73,12.73,0,0,1,4.85-3.35,10.3,10.3,0,0,1,6.42-.36,17.15,17.15,0,0,1,5.73,2.51,13.23,13.23,0,0,1,3.78,3.75A14.18,14.18,0,0,1,577,27.21a30,30,0,0,1,.59,5.13c-.12,2.09-.19,3.13-.32,5.22-1.38,11-2.79,21.93-5.91,32.6l-.09.31c-1,3.49-2,6.68-3,9.56a96.68,96.68,0,0,1-4.43,10.63,24.71,24.71,0,0,1-2.73,4.55,26.9,26.9,0,0,1-3.42,3.57,7.93,7.93,0,0,1-7.82,2C532.53,95.45,542.7,58,545.09,45.82Zm9.63,51A14.82,14.82,0,0,0,558.51,92a80.78,80.78,0,0,0,6.32-13.73c1.24-3.67,2.31-7.38,3.3-10.95l.12-.42L571,56.4a141,141,0,0,0,2.51-15.11A45.69,45.69,0,0,0,572.73,27a10.73,10.73,0,0,0-2.48-5,8.66,8.66,0,0,0-4.42-2.69,5.8,5.8,0,0,0-4.47.7,12.19,12.19,0,0,0-4,4.1,50.7,50.7,0,0,0-5.71,12.53c-1,3.37-2,6.95-2.85,10.63l-1.19,5.2a139.19,139.19,0,0,0-2.54,18.4,100.57,100.57,0,0,0-.4,12.54,32.88,32.88,0,0,0,1.71,9.48c1,2.8,2.42,4.52,4.43,5A4.46,4.46,0,0,0,554.72,96.81Z" transform="translate(0 -9.65)"/><path d="M585.88,109.66a13.12,13.12,0,0,1-2.62-3.7c-.68-1.54-.34-5.35.91-11.28s2.93-12.72,5.22-20.05c.51-1.64.87-3,1.09-3.77,2.64-10,6.58-20.56,8.94-31.09l1.26-1.2c1.94.86,2.32,3.09,1.13,6.67Q597.47,59,593.12,72.76c-.64,1.93-1.73,5.7-3,11.15-1.17,4.91-2.11,8.7-2.94,11.18-2.62,7.85-1.07,12.69,4.6,14.71,3.48,1.23,8.31-5.1,14.66-19l.88-2c5.55-13.69,11.15-27.36,16.38-41.18l.21-1a3.19,3.19,0,0,1,.21-1c.28-.75,1.16-.85,2.63-.29,1,.39,1.7.92,1.71,1.35a13.58,13.58,0,0,1-1.11,3.66q-3,7.73-4.74,10.08l-.11.66a36,36,0,0,1-1.93,3.92l-1.8,4-.39,1a3.86,3.86,0,0,1-.26,1.06c-.79,1.56-1.39,3.27-2,4.59-.21.43-.58,1.19-1,2.19-2.5,6.33-4.89,11.94-6.86,16.61a50.41,50.41,0,0,1-8.41,13.94c-3.29,3.71-6.74,4.93-10.43,3.64A9.25,9.25,0,0,1,585.88,109.66Z" transform="translate(0 -9.65)"/><path d="M627.16,123.74l1.53-3.73q.6-1.64,1.49-3.63a11.71,11.71,0,0,1,.87-1.64L632,113a21.63,21.63,0,0,0,.61-2.59c1.06-4,5.31-12.87,9.85-25.29,4.38-12,7.4-20.18,9.16-24.4-5.23-2.3-8.82-3.84-10.42-4.81S639,54,639.26,53.26a2.77,2.77,0,0,1,2.89-.1c2.56,1.06,6.3,2.73,10.94,5.15,4.24,2.21,7.85,4.12,10.79,5.5L666.53,65l2.69,1.16c1.51.72,2.05,1.52,1.64,2.36-.19.39-.61.57-1.26.54a5.54,5.54,0,0,1-2.1-.59q-2.5-1.2-5.17-2.68c-2.12-1.09-3.19-1.62-5.32-2.68-.34-.15-.55-.13-.64.07a8,8,0,0,0-1,1.83c-4.35,9.72-8,19.86-11.76,29.81s-7.6,19.93-12,29.59a1.79,1.79,0,0,1-1.53.86,3.77,3.77,0,0,1-2.09-.23Z" transform="translate(0 -9.65)"/><path d="M652.37,136.41a14.81,14.81,0,0,0,1.88-3.07c4.58-8.78,9.34-17.49,14.07-26.18,4.51-8.28,9.07-16.55,13.46-24.9l2.06-3.34,1.89-2.7c.24-.45.64-.52,1.22-.22a8.25,8.25,0,0,1,1.58,1.2l.32.29q-1.13,2.11-2.17,3.78l-2,3.75L679.1,95.49c-1.56,3.12-3.23,7.33-5.46,10.54a20,20,0,0,0-1.24,2.05l-1.19,2q-1.14,1.86-2.21,3.88-1.18,2.21-2,4.1l-2.09,4.19-.74.59.16,0c-.1.19-.21.3-.32.33l-.2.38a3,3,0,0,0-.38,1.52l-5.23,9.05-.31.58a14.93,14.93,0,0,0-.91,2,.58.58,0,0,0,.28.77c2.21,1.28,3.31,1.92,5.5,3.23,1.65.91,2.76,1.55,3.35,1.92l1.1.68.32.18a1.78,1.78,0,0,1,.77,1.13,1.75,1.75,0,0,1-.09,1.39c-.43.76-1.33.87-2.4.27s-4.08-2.44-8.8-5l.16.21a15,15,0,0,0-2.09-1,14,14,0,0,1-2-.83Q651.54,138.8,652.37,136.41Z" transform="translate(0 -9.65)"/><path d="M696.42,118.79l2-3.27c4.4-7.46,14.93-25.22,24.28-20.75a6.77,6.77,0,0,1,1.5,1.33,72.35,72.35,0,0,0,6.67,6.09c1.33,1.11,2,3.45,2.13,6.5a27.52,27.52,0,0,1-2.13,11,59,59,0,0,1-6.22,11.7l-.53.3q-2,3-3.51,5.38L717,142.58a89.33,89.33,0,0,1-6.07,8,51.64,51.64,0,0,1-8.63,8.22,20.8,20.8,0,0,1-4.85,2.65,13.27,13.27,0,0,1-4.74.78A8.37,8.37,0,0,1,688,160.7C675.95,152.15,691.11,127.47,696.42,118.79Zm2.16,37.9a44.09,44.09,0,0,0,9.3-8.72q4.06-5.13,6.24-8.39c1.62-2.41,3.76-6.2,6.48-11.12,3-5.47,5.31-9.19,6.56-11.06,0-.41,0-.62,0-1l.53-.3a11.3,11.3,0,0,0,1.72-8.78,11.11,11.11,0,0,0-5.12-7.46c-3.64-2.32-6.68-2.3-9.06,0a36.12,36.12,0,0,0-2.92,3.7c-2.88,4.25-5,7.56-6.44,8.95a50.4,50.4,0,0,1-3,4.16L700,120.82q-1.25,2-2.1,3.69l-2.16,3.79a79,79,0,0,0-5.26,10.57,65.83,65.83,0,0,0-2.83,8,18.82,18.82,0,0,0-.62,6.41c.17,2.09.87,3.64,2.26,4.52Q693.33,160.37,698.58,156.69Z" transform="translate(0 -9.65)"/><path d="M734.81,144.23l2.24-3.08c5.07-7.07,17.15-23.79,26.13-18.41a7,7,0,0,1,1.4,1.48,74.51,74.51,0,0,0,6.2,6.75c1.25,1.24,1.73,3.65,1.6,6.71a27.3,27.3,0,0,1-3.06,10.84,58.14,58.14,0,0,1-7.23,11.11l-.56.25q-2.28,2.78-4,5l-4,5.13a88,88,0,0,1-6.77,7.4,51,51,0,0,1-9.36,7.39,20.69,20.69,0,0,1-5.1,2.18,13.39,13.39,0,0,1-4.83.32,8.6,8.6,0,0,1-4.63-2C711.47,175.68,728.68,152.49,734.81,144.23Zm-1,38.14a43.54,43.54,0,0,0,10.07-7.82q4.51-4.74,7-7.79c1.83-2.26,4.3-5.85,7.44-10.5,3.5-5.18,6.11-8.68,7.52-10.44l.11-1,.56-.25A11.21,11.21,0,0,0,769,135.9a11.36,11.36,0,0,0-4.53-8c-3.47-2.67-6.52-3-9.11-.9a35.67,35.67,0,0,0-3.25,3.42c-3.24,4-5.61,7.08-7.22,8.33a49.75,49.75,0,0,1-3.37,3.87l-3.26,4q-1.42,1.93-2.42,3.49l-2.48,3.58a77.94,77.94,0,0,0-6.17,10.06,64.92,64.92,0,0,0-3.51,7.7,18.69,18.69,0,0,0-1.15,6.36c0,2.1.57,3.72,1.89,4.75Q728.24,185.54,733.83,182.36Z" transform="translate(0 -9.65)"/><path d="M768.07,211.4a180,180,0,0,1,8.3-19.13c3.3-6.55,5.79-11,7.57-13.17,0-.24,0-.36,0-.6l-3.87,1.17a38.64,38.64,0,0,0-4.19,1.26,31,31,0,0,0-3.5,1.75,12.92,12.92,0,0,0-3.44,2.62,26.27,26.27,0,0,1-2.81,2.74l-2.81,2.74L754,201.16a19.29,19.29,0,0,0-1.82,2.61,18.35,18.35,0,0,1-1.75,2.52,1.09,1.09,0,0,1-1.09.27,2.64,2.64,0,0,1-1.29-.64,3.92,3.92,0,0,1-1.36-1.79q-.14-.7.8-1.76L761,187a64.36,64.36,0,0,1,5-4.71,67.08,67.08,0,0,0,5-4.69,105.39,105.39,0,0,1,7.51-7.45,103.7,103.7,0,0,0,7.36-7.44L796,151.41a3.66,3.66,0,0,1,3.92,2.71,1.78,1.78,0,0,1-.39,1.63,10.14,10.14,0,0,0-4.36,3.1l-7.87,8.29q-3.71,3.69-7.93,8.38c.83.45,6.81-1,18.2-3.65s17.43-3.5,17.92-3c1.82,1.78,2.29,3.12,1.42,4A113.27,113.27,0,0,0,792,176.78l-2.48,2.45q-1.15,1-2.48,2.45c-2.18,2.33-5.11,7.79-9,16.24s-6.31,14.57-7.23,18.45c-.09,1.44-.12,2.27-.1,2.5a17,17,0,0,1-.48,3.13,4.3,4.3,0,0,1-1.09,1.91,1.38,1.38,0,0,1-1.3.39,2.67,2.67,0,0,1-1.39-.77C765,222.09,765.63,218.07,768.07,211.4Z" transform="translate(0 -9.65)"/></g></g></svg>