<svg xmlns="http://www.w3.org/2000/svg" viewBox="0 0 800.97 469.17"><defs><style>.cls-1{fill:#8b965e;}.cls-2{fill:#e6f0b3;}</style></defs><title>Asset 2</title><g id="Layer_2" data-name="Layer 2"><g id="Layer_1-2" data-name="Layer 1"><path class="cls-1" d="M528.87,434.68l-10.42,9.67,1.44,2.13,7,.74-2.17,7.21,7.19.25c-.6,6.7-.6,6.7-8.19,10l14.14,2.87-9.88,9.59c2.51,1.17,5.11,2.3,7.68,3.65h68.13c-.36-2.64-1.92-6.82-7.49-15.09l1.61-.33c-.92-.77-1.86-1.53-2.83-2.25,13.86-1.37,21-3.32,25-7.2-1.34-3.69-12.35-6.74-8.31-10.1l-19.2-6.63c11-2.54,19.83-4.43,28.56-6.75A77.22,77.22,0,0,1,609,422c2.32-.92,4.49-1.76,6.54-2.55-2.28-1-4.56-2-6.77-3l12.63-11.76-6.85-1.53c0-.54.05-1,.06-1.53l-12-2.35c10.88-4.51,10.88-4.51,11.73-13.73L604,385.2l3.11-9.92-14.8-1.53L610,358l-.23-3.24L584.46,348l22.45-11.32q-.23-2.42-.46-4.84l-27.55-9.46q.1-2.57.2-5.14c9.56,6.95,16.76.71,24.89-9.76l-23.4-2.9.39-2.47,20.77-8.18q-.13-1.49-.25-3l-28.05-8.39.45-3.69,21.72.74c-2.91-3.67-3.66-4.78-4.51-5.64-1.15-1.17-2.44-2-3.58-3.24-3.58-3.78-3.21-7.51-1.15-13.39,1.24-3.54.09-9,0-13.62-2.3,1.11-5.22,1.26-6.76,3.59-1.88,2.86-2.59,7.57-3.81,11.48l-3.2-4.78q.22-6.4.44-12.79l1.32,1.75L581.48,232l-1.22-3.33-6.84,3q.25-7.27.5-14.57l-2.86-.26c-.75,5.7-1.49,11.41-2,15.65l-6-4.19c.07,7.76.14,14.19.21,21.63l-7.76-3.41,1.07,14.41,12.16,7.84-.45,2.39-24.15-3.91q-.29,2.79-.57,5.59l24.3,9.93-25.35,5.12,7.27,10-11.81,9.53,15,15.85-.89,2.88-17.58,2.07,10.24,12.67-10.21,1.09-.42,4,15.81,7-21,12.13q-.16,2.28-.32,4.55l22.73,5.11.41,2.29L523,388.38c5.23,12.92,16.62,7.71,25.77,18.06l-25.38,3.71-.47,2.85,15,10.78q0,1.52-.05,3l-17.07,3.26,7.95,2.21Z" transform="translate(-2.17 -12.32)"/><path class="cls-1" d="M529,479.67l-17.83-10.22.26-3.85,14.7-2.82-10.35-10.06,5.31-4.49-1.17-1.74-3.35-.36,1.91-1.78-8.23-12.23,10.54-2-9.69-2.7,15.65-8.25-.31-3.52-19.19-6.85q.07-1.87.15-3.73c6.65,5,11.67.5,17.35-7.12l-16.3-2.08.28-1.8,14.47-6-.17-2.16-19.53-6.07.32-2.68,15.13.52c-2-2.66-2.54-3.47-3.14-4.09-.8-.85-1.7-1.48-2.49-2.35-2.49-2.74-2.23-5.45-.79-9.73.86-2.57.07-6.55,0-9.89-1.61.81-3.64.92-4.71,2.62-1.31,2.08-1.81,5.5-2.67,8.34l-2.23-3.47q.16-4.65.32-9.3l.92,1.27,4.94-8-.85-2.42-4.77,2.15q.18-5.28.36-10.58l-2-.19c-.52,4.14-1,8.29-1.44,11.37l-4.17-3c0,5.64.08,10.31.12,15.72L491,353.7c.29,4.19.53,7.55.73,10.47l8.46,5.68-.31,1.74L483,368.77q-.2,2-.4,4.06L499.55,380l-17.66,3.74,5.05,7.23-8.24,6.93,10.4,11.5-.62,2.1L476.24,413l7.12,9.2-7.11.8q-.15,1.46-.3,2.93L487,431l-14.66,8.83q-.11,1.65-.23,3.31l15.83,3.69.28,1.66-20,8.31c3.63,9.38,11.57,5.58,17.93,13.1l-17.68,2.72-.33,2.07,8.08,6.05h48.38Z" transform="translate(-2.17 -12.32)"/><path class="cls-1" d="M169.55,453.18l-5.37,4.77,2.88,2.93,5.74,1.19-3.06,1.55,4.87,5-9.81,2c2.17.79,4.34,1.62,6.47,2.56,1.28.56,2.14,2.06,3.2,3.13-1.07.88-2.08,2.43-3.22,2.53-1.91.18-3.82.34-5.75.49l2.48,1.49h85.53l-3.82-3.52,2.2-1.76c-2.49-2.1-5-4.57-7.71-6.68,2-.21,3.79-.45,5.53-.68l-4.4-6.18L267,458.09l0-2.26L256.92,449l-15.19-5.48c9.19-2.24,16.88-4,24.25-6-4.33-1.39-8.34-2.45-10.73-8l13.55-5.07c-3.57-1.85-7.19-3.45-10.68-5.09l3.44-3.36-2-.42.24-3.38,12.56-6.84L252,401.19c11-4.8,11-4.8,11.86-14.57l-10.41-.36,3.15-10.51-14.94-1.59,17.87-16.7-.23-3.44-25.55-7.16,22.68-12q-.23-2.56-.45-5.13l-27.79-10q.11-2.72.21-5.44c9.64,7.34,16.91.73,25.14-10.39l-23.62-3,.4-2.62,21-8.7-.25-3.15-28.29-8.84q.23-2,.46-3.91l21.93.75c-2.93-3.88-3.69-5.05-4.54-6-1.16-1.24-2.46-2.15-3.61-3.42-3.61-4-3.22-7.95-1.14-14.18,1.26-3.75.11-9.55,0-14.43-2.33,1.18-5.28,1.34-6.83,3.82-1.9,3-2.63,8-3.87,12.17l-3.23-5.06.47-13.56,1.33,1.85L230.9,224l-1.23-3.53-6.91,3.15q.26-7.71.53-15.43l-2.88-.28-2.09,16.58-6-4.43c.06,8.22.12,15,.18,22.92l-7.83-3.6c.42,6.1.76,11,1.06,15.26l12.26,8.29-.45,2.53-24.37-4.1-.58,5.92L217,277.78l-25.59,5.47,7.32,10.53-11.94,10.11,15.07,16.77-.9,3.05-17.75,2.23,10.31,13.41-10.31,1.17-.43,4.27,15.95,7.36L177.53,365l-.33,4.82,22.93,5.37.41,2.42-29,12.12c5.26,13.68,16.76,8.14,26,19.09l-25.62,4-.48,3,15.12,11.4q0,1.61-.06,3.22l-25.77,5.21-1.82.87Z" transform="translate(-2.17 -12.32)"/><path class="cls-1" d="M537,481.48c-.46-.27-.94-.47-1.4-.71H524.56" transform="translate(-2.17 -12.32)"/><path class="cls-1" d="M271.87,480.78H253.51" transform="translate(-2.17 -12.32)"/><path class="cls-1" d="M334.46,475.37l-24.53-8.05c8.94-1.93,16.07-3.36,23.16-5.15,1-.25,1.79-2.32,2.68-3.55-1-1.26-1.78-3.08-2.91-3.67-3.39-1.77-6.91-3.06-10.25-4.49l11.09-9.77-15.93-3c8.53-3.33,8.53-3.33,9.18-10.18l-8.1-.28,2.42-7.36-11.61-1.15,13.84-11.65-.19-2.41-19.88-5.09,17.6-8.37-.37-3.59L299,380.58q.07-1.9.15-3.81c7.51,5.17,13.15.55,19.52-7.21l-18.37-2.18.31-1.83,16.28-6q-.1-1.1-.2-2.21l-22-6.27.35-2.74,17,.59c-2.29-2.73-2.88-3.55-3.55-4.19-.91-.87-1.92-1.51-2.81-2.41-2.82-2.81-2.53-5.58-.92-9.94,1-2.62.06-6.69,0-10.11-1.81.83-4.1.92-5.3,2.66-1.47,2.12-2,5.61-3,8.52L294,329.84q.16-4.75.32-9.5l1,1.3,5.54-8.11-1-2.47-5.36,2.18q.18-5.4.37-10.81l-2.24-.2-1.58,11.61-4.71-3.12c.07,5.76.13,10.53.2,16.06l-6.1-2.55.86,10.7,9.55,5.84-.35,1.77-19-2.93-.44,4.15,19.08,7.41-19.88,3.76,5.72,7.4-9.25,7.05,11.75,11.79-.69,2.14-13.79,1.51,8.05,9.42-8,.79-.32,3,12.42,5.2-3.91,2.13h.05L261.56,416l15.86,3.4.32,1.7-8.95,3.35c.83.43,1.67.79,2.49,1.27,1.45.84,2.5,3.43,3.73,5.22-1.15,1.76-2.19,4.72-3.46,5.08-1.84.52-3.7,1-5.57,1.51,3.16,1,6.49,2.2,9.52,5.44l-19.9,2.72-.36,2.12,1.69,1.15,16.33,5.89c-2.59,7.8-8.07,11.17-23.53,13.29l4.13,5.8-2,1.56c4.59,3.87,9.16,6.45,15,2.86,1.45-.9,5,.79,5,1.65,0,.24,0,.51,0,.77h58.49A10.4,10.4,0,0,0,334.46,475.37Z" transform="translate(-2.17 -12.32)"/><path class="cls-1" d="M144.43,480.74c8-.54,14.66-.95,21.07-1.45l-6-3.6q.14-2,.27-4.08l5-1c-1.73-.63-3.45-1.24-5.13-1.87l10.07-5.09-2.68-2.74-12.45-2.57c9.93-1.84,9.93-1.84,11-7.13l-9.29-.95,3.08-5.53-13.3-1.95,12.86-6.18-.29-.45,2.11-.43,1.69-.81q-.06-1-.12-1.9l-22.64-5.77,20.55-5-.28-2.84L135.37,412l.32-3c8.43,4.72,15.09,1.62,22.72-3.88l-21-3.36.42-1.4,18.95-3.26-.14-1.74-25.05-6.88.51-2.11,19.56,2c-2.52-2.33-3.16-3-3.91-3.59-1-.76-2.14-1.36-3.14-2.13-3.12-2.45-2.68-4.59-.66-7.85,1.22-2,.34-5.22.4-7.9-2.11.48-4.74.35-6.19,1.6-1.77,1.53-2.55,4.21-3.76,6.39l-2.75-3,.75-7.4,1.14,1.11,6.69-5.84-1-2L133,358.92q.42-4.21.86-8.42l-2.57-.36L129,359.08l-5.29-2.86c-.15,4.51-.27,8.24-.42,12.57l-6.9-2.54.56,8.44,10.74,5.42-.47,1.35-21.66-4-.67,3.21,21.62,7.51-23,1.15,6.27,6.3-10.91,4.68,13,10.27-.88,1.61-15.91-.06,8.88,8.09-9.23-.1-.49,2.31,14.06,5.18L89,433.14l-.41,2.62,20.35,4.6.31,1.36L83.1,446.26c4.36,7.87,14.77,5.66,22.73,12.33l-23,.34-.5,1.62,13.22,7.34-.13,1.76-25,1.08,9.25,10h64.91Z" transform="translate(-2.17 -12.32)"/><path class="cls-1" d="M168,480.78H144.55" transform="translate(-2.17 -12.32)"/><path class="cls-1" d="M780.73,474.05l-.31-1.87-18.71-2.81,15.8-7.58L777,459l-20.44-4.25q0-1.5-.08-3c7.26,3.6,12.21-.34,17.65-6.79l-17.13-.63q.09-.73.18-1.45l14.72-5.68-.31-1.72-20.75-3.61.16-2.16,15.82-.54c-2.28-2-2.87-2.61-3.53-3.07-.89-.63-1.87-1.07-2.75-1.72-2.77-2-2.67-4.21-1.44-7.72.74-2.11-.34-5.24-.6-7.91-1.62.75-3.74,1-4.75,2.39-1.23,1.75-1.54,4.51-2.25,6.83l-2.54-2.63q-.13-3.73-.26-7.45l1,1,4.65-6.67-1-1.88-4.84,2-.29-8.48-2.09,0c-.29,3.35-.57,6.69-.78,9.18l-4.55-2.16c.41,4.5.74,8.23,1.13,12.55l-5.79-1.63,1.43,8.32,9.18,4-.22,1.41-17.72-1.18-.16,3.27,18.1,4.68-18.18,4.11,5.73,5.45-8.15,6.06,11.57,8.53-.51,1.71-12.68,2,8,6.9-7.37,1.09-.12,2.36,11.8,3.34-12.87,7h48.61Z" transform="translate(-2.17 -12.32)"/><path class="cls-1" d="M436.63,469.24l-25.33-6.8,22.45-11.32q-.23-2.42-.46-4.84l-27.55-9.46q.1-2.57.2-5.14c9.56,6.95,16.76.71,24.89-9.76l-23.4-2.9.39-2.47,20.77-8.18q-.13-1.49-.25-3L400.3,397l.45-3.69,21.72.74c-2.91-3.66-3.66-4.78-4.51-5.64-1.15-1.17-2.44-2-3.58-3.24-3.58-3.78-3.21-7.51-1.15-13.39,1.24-3.54.09-9,0-13.62-2.3,1.11-5.22,1.25-6.76,3.59-1.88,2.86-2.59,7.57-3.81,11.48l-3.2-4.78q.22-6.4.44-12.79l1.32,1.75,7.08-10.94-1.22-3.33-6.84,3q.25-7.28.5-14.57l-2.86-.26-2,15.65-6-4.19c.07,7.76.14,14.19.21,21.63l-7.76-3.41c.43,5.77.78,10.4,1.07,14.41l12.16,7.84-.45,2.39-24.15-3.91q-.29,2.79-.57,5.59l24.3,9.94-25.35,5.12,7.27,10-11.81,9.53,15,15.85-.89,2.88-17.58,2.07,10.24,12.67-10.21,1.09-.42,4,15.81,7-21,12.13q0,.63-.09,1.27h72l9.3-8.28Q436.75,470.87,436.63,469.24Z" transform="translate(-2.17 -12.32)"/><path class="cls-1" d="M622,480.78H603.74" transform="translate(-2.17 -12.32)"/><path class="cls-1" d="M711.55,461q-5.21-9.39-16.75-11,31.22-18.38-6.14-17.16,12.26-1.89,11.73-13.74c-25.47-.87,10.5-8.44-22-11.8,24.44-21.76,24.87-17-7.89-25.79,58.25-29.37-6.61.89-5.36-30.77Q681.58,358,690,341c-30.82-3.81-30.41-2.45-2.24-13.55-1-11.66-62.09-16.23-6.12-14.31-9.73-12.25-9-19.53-9.22-35.88q-10.89,2.8-10.57,15.07-6.87-7.22-2.77-17.57c1.42,1.89,11.63-23.14-2-24.4-1.7,13-14.22,27-15.6,29.68-11.86,23.18,46.68,30.12-11.36,20.73q-4.49,17.58,23.73,15.53c-51,10.29-2.11,2.19-29.89,24.6,41.27,43.74-23.31-3.69,6.72,33.48-19.06,2-9.22,5.74,5.19,12.1-14,.73-21,5.82-21.28,15.15l8.32,1.63-1.53,1.42c24.06,5.32,20.56,4.62-5.86,14.72,2.1.93,4.21,1.91,6.28,3.05,1.44.79,2.48,3.24,3.7,4.93-1.14,1.66-2.17,4.45-3.42,4.79l-1,.25A77.32,77.32,0,0,0,634.77,440c-14.47,2.12-20.85,4-23,5.79l12,4.15a14.63,14.63,0,0,1-3.73,5.95c1,2.68-3.27,5.71-22.21,9.45,6.37,5.36,11.91,11.34,19.65,6.79,1.44-.85,4.93.75,5,1.57a33,33,0,0,1-.44,7.06h79.81l-23.24-8C688.3,470.52,705.45,469.89,711.55,461Z" transform="translate(-2.17 -12.32)"/><path class="cls-1" d="M597.86,465.36c18.94-3.74,23.19-6.76,22.21-9.45-4,3.88-11.18,5.83-25,7.2C596,463.83,596.94,464.59,597.86,465.36Z" transform="translate(-2.17 -12.32)"/><path class="cls-1" d="M268.8,424.45l8.95-3.35-.32-1.7L261.56,416l-3.44,3.36C261.61,421,265.23,422.6,268.8,424.45Z" transform="translate(-2.17 -12.32)"/><path class="cls-1" d="M144.43,480.74l.12,0H168l-2.48-1.49C159.09,479.79,152.38,480.19,144.43,480.74Z" transform="translate(-2.17 -12.32)"/><path class="cls-1" d="M611.77,445.81c2.15-1.79,8.53-3.67,23-5.79a77.32,77.32,0,0,1-13.64-7.58c-8.73,2.31-17.57,4.21-28.56,6.75Z" transform="translate(-2.17 -12.32)"/><path class="cls-1" d="M516.54,446.13l3.35.36-1.44-2.13Z" transform="translate(-2.17 -12.32)"/><path class="cls-1" d="M169.55,453.18l-10.63-16.6-12.86,6.18,13.3,1.95-3.08,5.53,9.29.95c-1,5.29-1,5.29-11,7.13l12.45,2.57-2.88-2.93Z" transform="translate(-2.17 -12.32)"/><path class="cls-1" d="M169.74,463.62l-10.07,5.09c1.68.63,3.4,1.24,5.13,1.87l9.81-2Z" transform="translate(-2.17 -12.32)"/><path class="cls-1" d="M251.89,475.5l2-1.56-4.13-5.8c-1.74.24-3.52.47-5.53.68C246.9,470.93,249.4,473.4,251.89,475.5Z" transform="translate(-2.17 -12.32)"/><path class="cls-1" d="M615.53,419.41C642,409.3,645.46,410,621.4,404.68l-12.63,11.76C611,417.44,613.25,418.4,615.53,419.41Z" transform="translate(-2.17 -12.32)"/><path class="cls-1" d="M256.92,449l-1.69-1.15.36-2.12,19.9-2.72c-3-3.24-6.36-4.43-9.52-5.44-7.37,1.94-15.06,3.72-24.25,6Z" transform="translate(-2.17 -12.32)"/><path class="cls-2" d="M725,470.45l.12-2.36,7.37-1.09-8-6.9,12.68-2,.51-1.71-11.57-8.53,8.15-6.06-5.73-5.45,18.18-4.11-18.1-4.68.16-3.27,17.72,1.18.22-1.41-9.18-4-1.43-8.32,5.79,1.63c-.39-4.32-.72-8-1.13-12.55L745.3,403c.21-2.49.5-5.83.78-9.18l2.09,0,.29,8.48,4.84-2,1,1.88-4.65,6.67-1-1q.13,3.72.26,7.45l2.54,2.63c.71-2.32,1-5.09,2.25-6.83,1-1.43,3.12-1.64,4.75-2.39.26,2.67,1.34,5.8.6,7.91-1.23,3.51-1.34,5.69,1.44,7.72.88.65,1.86,1.09,2.75,1.72.66.46,1.25,1.07,3.53,3.07l-15.82.54-.16,2.16,20.75,3.61.31,1.72-14.72,5.68q-.09.73-.18,1.45l17.13.63c-5.44,6.45-10.39,10.39-17.65,6.79q0,1.5.08,3L777,459l.55,2.79-15.8,7.58,18.71,2.81.31,1.87-8.21,6.72h23.29S725.33,123.69,415.93,123.69,48.76,480.78,48.76,480.78H79.64l-9.25-10,25-1.08.13-1.76-13.22-7.34.5-1.62,23-.34c-8-6.67-18.37-4.46-22.73-12.33l26.19-4.56-.31-1.36-20.35-4.6.41-2.62,19.29-5.53-14.06-5.18.49-2.31,9.23.1-8.88-8.09,15.91.06.88-1.61-13-10.27,10.91-4.68-6.27-6.3,23-1.15-21.62-7.51.67-3.21,21.66,4,.47-1.35-10.74-5.42-.56-8.44,6.9,2.54c.14-4.33.27-8.06.42-12.57l5.29,2.86,2.28-8.93,2.57.36q-.43,4.21-.86,8.42l6.25-1.23,1,2-6.69,5.84-1.14-1.11-.75,7.4,2.75,3c1.21-2.18,2-4.86,3.76-6.39,1.45-1.25,4.08-1.12,6.19-1.6-.06,2.68.82,5.94-.4,7.9-2,3.27-2.46,5.4.66,7.85,1,.78,2.13,1.37,3.14,2.13.74.56,1.39,1.26,3.91,3.59l-19.56-2-.51,2.11,25.05,6.88.14,1.74-18.95,3.26-.42,1.4,21,3.36c-7.63,5.49-14.29,8.59-22.72,3.88l-.32,3,24.57,7.47.28,2.84-20.55,5L162.31,433q.06.95.12,1.9l-1.69.81,25.77-5.21q0-1.61.06-3.22l-15.12-11.4.48-3,25.62-4c-9.22-11-20.72-5.41-26-19.09l29-12.12-.41-2.42-22.93-5.37.33-4.82,21.24-12.88-15.95-7.36.43-4.27,10.31-1.17-10.31-13.41L201,323.71l.9-3.05-15.07-16.77,11.94-10.11-7.32-10.53L217,277.78l-24.5-10.49.58-5.92,24.37,4.1.45-2.53-12.26-8.29c-.29-4.24-.63-9.16-1.06-15.26l7.83,3.6c-.06-7.89-.11-14.7-.18-22.92l6,4.43,2.09-16.58,2.88.28q-.26,7.72-.53,15.43l6.91-3.15L230.9,224l-7.16,11.61-1.33-1.85-.47,13.56,3.23,5.06c1.24-4.14,2-9.13,3.87-12.17,1.55-2.48,4.5-2.63,6.83-3.82.07,4.88,1.21,10.68,0,14.43C233.73,257.06,233.35,261,237,265c1.15,1.27,2.44,2.19,3.61,3.42.86.91,1.61,2.09,4.54,6l-21.93-.75q-.23,2-.46,3.91L251,286.39l.25,3.15-21,8.7-.4,2.62,23.62,3C245.27,315,238,321.62,228.35,314.28q-.11,2.72-.21,5.44l27.79,10q.23,2.57.45,5.13l-22.68,12L259.26,354l.23,3.44-17.87,16.7,14.94,1.59-3.15,10.51,10.41.36c-.88,9.77-.88,9.77-11.86,14.57l20.43,4.17,3.91-2.13L263.88,398l.32-3,8-.79-8.05-9.42L278,383.31l.69-2.14-11.75-11.79,9.25-7.05-5.72-7.4,19.88-3.76-19.08-7.41.44-4.15,19,2.93.35-1.77-9.55-5.84-.86-10.7,6.1,2.55c-.07-5.53-.13-10.3-.2-16.06l4.71,3.12,1.58-11.61,2.24.2q-.19,5.41-.37,10.81l5.36-2.18,1,2.47-5.54,8.11-1-1.3q-.16,4.75-.32,9.5l2.52,3.55c.95-2.9,1.5-6.39,3-8.52,1.2-1.74,3.49-1.83,5.3-2.66.06,3.42,1,7.48,0,10.11-1.61,4.36-1.9,7.13.92,9.94.89.89,1.9,1.54,2.81,2.41.67.64,1.26,1.47,3.55,4.19l-17-.59-.35,2.74,22,6.27q.1,1.1.2,2.21l-16.28,6-.31,1.83,18.37,2.18c-6.37,7.77-12,12.38-19.52,7.21q-.08,1.9-.15,3.81l21.63,7.06.37,3.59-17.6,8.37,19.88,5.09.19,2.41-13.84,11.65,11.61,1.15-2.42,7.36,8.1.28c-.66,6.85-.66,6.85-9.18,10.18l15.93,3-11.09,9.77c3.34,1.42,6.86,2.72,10.25,4.49,1.13.59,2,2.41,2.91,3.67-.89,1.23-1.69,3.3-2.68,3.55-7.09,1.79-14.22,3.21-23.16,5.15l24.53,8.05a10.4,10.4,0,0,1-4.11,5.4h25.23q0-.63.09-1.27l21-12.13-15.81-7,.42-4,10.21-1.09-10.24-12.67,17.58-2.07.89-2.88-15-15.85,11.81-9.53-7.27-10,25.35-5.12-24.3-9.94q.28-2.79.57-5.59l24.15,3.91.45-2.39-12.16-7.84c-.3-4-.64-8.64-1.07-14.41l7.76,3.41c-.07-7.45-.13-13.87-.21-21.63l6,4.19,2-15.65,2.86.26q-.25,7.29-.5,14.57l6.84-3,1.22,3.33-7.08,10.94-1.32-1.75q-.22,6.4-.44,12.79l3.2,4.78c1.22-3.91,1.93-8.62,3.81-11.48,1.53-2.34,4.45-2.48,6.76-3.59.07,4.61,1.22,10.08,0,13.62-2.06,5.88-2.43,9.61,1.15,13.39,1.14,1.2,2.42,2.07,3.58,3.24.85.86,1.6,2,4.51,5.64l-21.72-.74L400.3,397l28.05,8.39q.12,1.49.25,3l-20.77,8.18-.39,2.47,23.4,2.9c-8.14,10.48-15.33,16.71-24.89,9.76q-.1,2.57-.2,5.14l27.55,9.46q.23,2.42.46,4.84L411.3,462.44l25.33,6.8q.12,1.63.23,3.25l-9.3,8.28h48.63l-8.08-6.05.33-2.07,17.68-2.72c-6.36-7.52-14.3-3.72-17.93-13.1l20-8.31-.28-1.66-15.83-3.69q.11-1.66.23-3.31L487,431l-11-5.05q.15-1.47.3-2.93l7.11-.8-7.12-9.2,12.25-1.52.62-2.1-10.4-11.5,8.24-6.93-5.05-7.23L499.55,380l-16.91-7.19q.2-2,.4-4.06l16.82,2.81.31-1.74-8.46-5.68c-.2-2.91-.44-6.28-.73-10.47l5.41,2.47c0-5.41-.08-10.08-.12-15.72l4.17,3c.39-3.08.92-7.23,1.44-11.37l2,.19q-.18,5.3-.36,10.58l4.77-2.15.85,2.42-4.94,8-.92-1.27q-.16,4.65-.32,9.3l2.23,3.47c.85-2.84,1.36-6.26,2.67-8.34,1.07-1.7,3.1-1.81,4.71-2.62,0,3.35.84,7.32,0,9.89-1.44,4.28-1.71,7,.79,9.73.79.87,1.69,1.5,2.49,2.35.59.63,1.11,1.43,3.14,4.09l-15.13-.52-.32,2.68L523,385.94l.17,2.16-14.47,6-.28,1.8,16.3,2.08c-5.68,7.62-10.7,12.16-17.35,7.12q-.07,1.87-.15,3.73l19.19,6.85.31,3.52-15.65,8.25,9.69,2.7,17.07-3.26q0-1.52.05-3l-15-10.78.47-2.85,25.38-3.71c-9.15-10.36-20.54-5.15-25.77-18.06L551.65,377l-.41-2.29-22.73-5.11q.16-2.28.32-4.55l21-12.13-15.81-7,.42-4,10.21-1.09-10.24-12.67L552,326.07l.89-2.88-15-15.85,11.81-9.53-7.27-10,25.35-5.12-24.3-9.93q.28-2.8.57-5.59l24.15,3.91.45-2.39-12.16-7.84-1.07-14.41,7.76,3.41c-.07-7.45-.13-13.87-.21-21.63l6,4.19c.55-4.24,1.3-9.95,2-15.65l2.86.26q-.25,7.29-.5,14.57l6.84-3,1.22,3.33-7.08,10.94-1.32-1.75q-.22,6.4-.44,12.79l3.2,4.78c1.22-3.91,1.93-8.62,3.81-11.48,1.53-2.34,4.45-2.48,6.76-3.59.07,4.61,1.22,10.08,0,13.62-2.06,5.88-2.43,9.61,1.15,13.39,1.14,1.2,2.42,2.07,3.58,3.24.85.86,1.6,2,4.51,5.64l-21.72-.74-.45,3.69,28.05,8.39q.12,1.49.25,3L581,302.07l-.39,2.47,23.4,2.9c-8.14,10.48-15.33,16.71-24.89,9.76q-.1,2.57-.2,5.14l27.55,9.46q.23,2.42.46,4.84L584.46,348l25.33,6.8L610,358l-17.68,15.74,14.8,1.53L604,385.2l10.32.35c-.85,9.22-.85,9.22-11.73,13.73l12,2.35c.25-9.33,7.28-14.42,21.28-15.15-14.41-6.36-24.25-10.07-5.19-12.1-30-37.17,34.55,10.26-6.72-33.48,27.78-22.41-21.07-14.31,29.89-24.6q-28.22,2.06-23.73-15.53c58,9.39-.49,2.45,11.36-20.73,1.37-2.68,13.9-16.66,15.6-29.68,13.65,1.26,3.44,26.28,2,24.4q-4.1,10.35,2.77,17.57-.33-12.27,10.57-15.07c.26,16.35-.51,23.63,9.22,35.88-56-1.92,5.14,2.65,6.12,14.31-28.16,11.1-28.58,9.73,2.24,13.55q-8.45,17-24.89,9.76c-1.25,31.66,63.6,1.39,5.36,30.77,32.76,8.8,32.32,4,7.89,25.79,32.51,3.35-3.46,10.92,22,11.8q.53,11.85-11.73,13.74Q726,431.64,694.8,450q11.54,1.56,16.75,11c-6.11,8.92-23.26,9.55-33,11.78l23.24,8h22.07l12.87-7Z" transform="translate(-2.17 -12.32)"/><path class="cls-1" d="M79.64,480.78l.07.08" transform="translate(-2.17 -12.32)"/><path class="cls-1" d="M253.51,480.78H168" transform="translate(-2.17 -12.32)"/><path class="cls-1" d="M174.46,476.26c-1.05-1.07-1.92-2.56-3.2-3.13-2.13-.94-4.3-1.76-6.47-2.56l-5,1q-.13,2-.27,4.08l6,3.6c1.93-.15,3.84-.31,5.75-.49C172.39,478.69,173.39,477.15,174.46,476.26Z" transform="translate(-2.17 -12.32)"/><path class="cls-1" d="M167.06,460.88l2.68,2.74,3.06-1.55Z" transform="translate(-2.17 -12.32)"/><path class="cls-1" d="M158.92,436.58l1.82-.87-2.11.43Z" transform="translate(-2.17 -12.32)"/><path class="cls-1" d="M330.35,480.78H271.87" transform="translate(-2.17 -12.32)"/><path class="cls-1" d="M267,458.09,245.32,462l4.4,6.18c15.46-2.12,20.94-5.5,23.53-13.29L256.92,449,267,455.83Z" transform="translate(-2.17 -12.32)"/><path class="cls-1" d="M259.58,415.58l2,.42,10.88-10.63h-.05l-12.56,6.84Z" transform="translate(-2.17 -12.32)"/><path class="cls-1" d="M271.87,480.78c0-.25,0-.52,0-.77,0-.87-3.56-2.55-5-1.65-5.8,3.59-10.36,1-15-2.86l-2.2,1.76,3.82,3.52" transform="translate(-2.17 -12.32)"/><path class="cls-1" d="M266,437.52c1.87-.49,3.73-1,5.57-1.51,1.27-.36,2.31-3.32,3.46-5.08-1.23-1.79-2.27-4.38-3.73-5.22-.82-.47-1.66-.84-2.49-1.27l-13.55,5.07C257.64,435.07,261.64,436.13,266,437.52Z" transform="translate(-2.17 -12.32)"/><path class="cls-1" d="M427.56,480.78h-72" transform="translate(-2.17 -12.32)"/><path class="cls-1" d="M524.56,480.78H476.19" transform="translate(-2.17 -12.32)"/><path class="cls-1" d="M603.74,480.78H535.62" transform="translate(-2.17 -12.32)"/><path class="cls-1" d="M518.45,444.35l10.42-9.67-.16-2.36-7.95-2.21-10.54,2Z" transform="translate(-2.17 -12.32)"/><path class="cls-1" d="M537.81,467.53l-14.14-2.87c7.58-3.29,7.58-3.29,8.19-10l-7.19-.25,2.17-7.21-7-.74,1.17,1.74-5.31,4.49,10.35,10.06-14.7,2.82-.26,3.85L529,479.67l-4.41,1.1h11.06c-2.57-1.35-5.18-2.48-7.68-3.65Z" transform="translate(-2.17 -12.32)"/><path class="cls-1" d="M701.84,480.78H622" transform="translate(-2.17 -12.32)"/><path class="cls-1" d="M603.74,480.78H622a33,33,0,0,0,.44-7.06c0-.82-3.53-2.42-5-1.57-7.74,4.55-13.27-1.43-19.65-6.79l-1.61.33C601.82,474,603.38,478.14,603.74,480.78Z" transform="translate(-2.17 -12.32)"/><path class="cls-1" d="M621.12,432.44l1-.25c1.25-.34,2.28-3.13,3.42-4.79-1.22-1.69-2.26-4.14-3.7-4.93-2.07-1.14-4.18-2.12-6.28-3.05-2,.78-4.22,1.62-6.54,2.55A77.22,77.22,0,0,0,621.12,432.44Z" transform="translate(-2.17 -12.32)"/><path class="cls-1" d="M621.4,404.68l1.53-1.42-8.32-1.63c0,.51-.09,1-.06,1.53Z" transform="translate(-2.17 -12.32)"/><path class="cls-1" d="M620.08,455.91a14.63,14.63,0,0,0,3.73-5.95l-12-4.15C607.72,449.18,618.74,452.22,620.08,455.91Z" transform="translate(-2.17 -12.32)"/><path class="cls-1" d="M772.52,480.78H723.91" transform="translate(-2.17 -12.32)"/><path d="M80.64,246.32a3,3,0,0,1-2-.66l-7.74-5.82L63.13,234,49,223.8q-9.59-6.63-14.21-10.07l-2.43-2-5.66-4.24q-9.41-7-9.6-6.79c-4.45,6-6.63,9-10.91,15.21a6.53,6.53,0,0,1-1.73,1.75q-1,.65-1.6.22a1.32,1.32,0,0,1-.71-1.09,8.64,8.64,0,0,1,1.07-2.52,52.56,52.56,0,0,1,3.57-5.68c3.87-5.46,5.83-8.14,9.84-13.42,4.37-5.83,6.59-8.7,11.13-14.31A5.75,5.75,0,0,1,29.82,179a1.51,1.51,0,0,1,1.56.34c.84.7.59,1.84-.71,3.43-1.86,2.27-2.78,3.41-4.61,5.72s-2.68,3.39-4.44,5.68l-.81,1.24,5.1,3.72,6.73,5.18,35,27,7.16,5.51,6.47,4.8.17.13a6.68,6.68,0,0,1,1.08,1,2,2,0,0,1,.4,1,1.9,1.9,0,0,1-.4,1.43A2.57,2.57,0,0,1,80.64,246.32Z" transform="translate(-2.17 -12.32)"/><path d="M108.3,214.16a14.89,14.89,0,0,1-4.74,1.23c-1.77.1-5.2-1.66-10.17-5.13A193.64,193.64,0,0,1,77,197.51c-1.3-1.13-2.36-2-3-2.5-8.08-6.34-16.18-14.31-25-20.59l-.51-1.73c1.78-1.68,4.07-1.24,6.87,1.29q10.85,9.51,21.68,19c1.51,1.37,4.53,3.88,9,7.22,4,3,7.17,5.39,9.1,7.15,6.11,5.58,11.41,5.83,16.05,1,2.84-3-.74-10.19-10.67-21.83l-1.44-1.64C89.05,174.12,79,163.31,68.58,152.81l-.8-.58a2.86,2.86,0,0,1-.8-.58c-.56-.56-.22-1.48,1-2.74.89-.89,1.72-1.34,2.13-1.19A12.3,12.3,0,0,1,73,150.22q5.78,5.92,7.11,8.59l.57.36a32.14,32.14,0,0,1,2.73,3.43l2.84,3.32.76.78a3.46,3.46,0,0,1,.87.67c1.08,1.38,2.39,2.66,3.3,3.78.3.36.83,1,1.58,1.81,4.7,4.92,8.8,9.45,12.2,13.2a46.23,46.23,0,0,1,9,13.69c1.87,4.68,1.35,8.55-1.65,11.72A11.4,11.4,0,0,1,108.3,214.16Z" transform="translate(-2.17 -12.32)"/><path d="M161.23,166.08l-.76-.25a5.77,5.77,0,0,1-1.86-1,5.2,5.2,0,0,0-1.34-.9l-.09-.34A54.34,54.34,0,0,0,146,156.39c-2.16-1.19-3.25-1.78-5.42-2.94a53,53,0,0,1-5.51-2.72l-2.5-1.34c-10.13-5.31-22-12.92-33.61-14.63a20.09,20.09,0,0,0,4.08,6.56q1.64,1.89,3,3.2l2.89,3.11,1.6,2.07a21.57,21.57,0,0,0,1.6,2.07,25.79,25.79,0,0,0,2.93,2.94l2.5,2.45-.32.28Q129.05,171.2,131,172l6.4,7.42a4.35,4.35,0,0,1,1.89,1.39,2,2,0,0,1,.45,1.63,2.58,2.58,0,0,1-.91,1.66q-2.08,1.82-6-2.58l-2.1-2.79a22.34,22.34,0,0,0-2.17-2.88q-3.45-3.92-10.68-11.49t-10.7-11.47q-2.09-2.37-6.08-7.56t-6-7.49l-.94-1.06c-2.35-2.67-3.2-5-2.52-7.07l.56-.06,1-1.18a3.57,3.57,0,0,1,1.48-.41,1.22,1.22,0,0,1,1.1.34l.66.3A1.32,1.32,0,0,0,97,129c4.59,2.86,12.16,5.92,22.14,9.72,10.43,4,17.15,7.19,20,8.93a70.29,70.29,0,0,1,5.88,4q7.7,5.75,13.44,7.7l0-.42c-9.75-17.28-21.11-33.58-32.72-49.65l-.9-1a5.39,5.39,0,0,1-1-1.05q-1.36-1.84.36-3.11a3.21,3.21,0,0,1,2.48-.59,3,3,0,0,1,2.07,1.19l4.26,5.93-.09,1.14c6.56,9.25,12.6,18.89,18.65,28.46C160,153.6,164.4,161,164.52,162.67L163,164.34l.07.09h-.17l-.84,1Z" transform="translate(-2.17 -12.32)"/><path d="M210.85,134l-.71-.36a5.85,5.85,0,0,1-1.68-1.32,5.29,5.29,0,0,0-1.19-1.09l0-.35a55.27,55.27,0,0,0-10-8.75c-2-1.5-2.93-2.24-4.9-3.72a53.67,53.67,0,0,1-5-3.52l-2.27-1.7c-9.18-6.78-19.68-16.06-30.87-19.57a20.5,20.5,0,0,0,3.1,7.07q1.35,2.11,2.47,3.6l2.41,3.5,1.29,2.28a22,22,0,0,0,1.29,2.28,26.37,26.37,0,0,0,2.46,3.34l2.11,2.79-.35.22q9.79,15.34,11.57,16.4l5.26,8.28a4.44,4.44,0,0,1,1.66,1.65,2,2,0,0,1,.22,1.67,2.48,2.48,0,0,1-1.11,1.49q-2.27,1.46-5.48-3.46l-1.68-3.07a22.84,22.84,0,0,0-1.74-3.16q-2.85-4.39-8.89-12.93t-8.91-12.92q-1.72-2.65-4.93-8.36T150.05,96l-.77-1.19c-1.94-3-2.45-5.43-1.51-7.33l.56,0,1.16-1a3.47,3.47,0,0,1,1.5-.18,1.22,1.22,0,0,1,1,.51l.6.39a1.35,1.35,0,0,0,.42.38c4.1,3.52,11.08,7.7,20.32,13,9.66,5.52,15.79,9.71,18.38,11.86,2,1.69,3.78,3.37,5.21,4.82q6.76,6.83,12.1,9.63l.07-.41C201.91,108,193,90.24,183.82,72.68l-.75-1.08a5.49,5.49,0,0,1-.8-1.18q-1.08-2,.77-3a3.13,3.13,0,0,1,2.51-.21,3,3,0,0,1,1.86,1.49l3.36,6.48-.25,1.11c5.17,10.09,9.77,20.49,14.39,30.83,6.44,14.41,9.69,22.39,9.59,24l-1.7,1.41.05.1-.16,0-1,.89Z" transform="translate(-2.17 -12.32)"/><path d="M234.34,120.66l-.6-1.28a5.9,5.9,0,0,0-.44-1.24l-.65-.18a11,11,0,0,0-.95-4.48q-1.05-2.27-3.38-6.36L225,100.71c-1.53-3.29-3.8-8.32-6.52-15-2.42-5.94-4.52-11.07-6.41-15.16l-3-5.81q-1.51-2.54-3-5.8a2.62,2.62,0,0,1,0-2.56,5.86,5.86,0,0,1,2.68-2,3.92,3.92,0,0,1,2.44-.38c.21,0,1.59-.48,4.12-1.34a40,40,0,0,1,6.25-1.6c1.89-.31,3-.17,3.22.43s-.31,1.7-1.74,3.08c-5.68.88-9.61,1.88-11.77,2.85l-.4.9a43.68,43.68,0,0,1,2.07,4.21c1.29,2.85,2.32,5.5,3.2,7.76s2.09,5,3.38,7.8q1.26,2.78,3,2l2-1A23.68,23.68,0,0,1,226.67,78c3.33-1.45,5.27-1.54,5.78-.33a3,3,0,0,1,.15,2.12A2.58,2.58,0,0,1,231,81.37a5.11,5.11,0,0,1-3.27.46l-4.28,1.29-.63.28-.41.78.14.3a78.5,78.5,0,0,1,3.8,7.73q1.75,3.87,3.07,7.1l3.07,7.1c1.17,2.58,2.56,5.19,3.95,7.78.78,1.45,1.61,2.32,2.53,2.51a7.85,7.85,0,0,0,4.18-.94l2.06-1q1-.55,2.3-1.09c2.26-1,3.58-1,3.94-.1.5,1.21-1,2.5-4.37,3.95-3.8,1.62-5.7,2.45-9.47,4.17A2.3,2.3,0,0,1,234.34,120.66Z" transform="translate(-2.17 -12.32)"/><path d="M264.44,107.91a14.33,14.33,0,0,0-1-3.46c-3.45-9.29-6.71-18.66-10-28-3.11-8.91-6.18-17.84-9.43-26.7L242.94,46l-.71-3.22c-.18-.48.06-.83.71-1.07a9.14,9.14,0,0,1,2.06-.39l.45,0q.81,2.26,1.34,4.15l1.44,4,4,11.17c1.27,3.25,3.29,7.34,4.15,11.13a19.15,19.15,0,0,0,.68,2.3l.65,2.2q.61,2.1,1.38,4.25.85,2.36,1.68,4.26L262.48,89l-.08,1,.09-.15a.56.56,0,0,1,0,.45l.15.41a2.91,2.91,0,0,0,.89,1.3c1.27,4,1.9,6,3.18,10l.22.61a14.46,14.46,0,0,0,.86,2,.59.59,0,0,0,.78.3c2.51-.8,3.77-1.19,6.29-2,1.84-.62,3.11-1,3.8-1.2l1.28-.36.36-.12a1.86,1.86,0,0,1,1.39.18,1.74,1.74,0,0,1,1,1c.27.83-.27,1.57-1.48,2s-4.69,1.39-9.91,3.22l.27,0a15.8,15.8,0,0,0-2.21.9,15.06,15.06,0,0,1-2.05,1C266.21,109.93,265.26,109.39,264.44,107.91Z" transform="translate(-2.17 -12.32)"/><path d="M333.06,89.15c-.94-1.78-1.42-2.66-2.37-4.43-3.58-6.2-6.42-11.53-8.49-15.77-1.14-2.33-2.76-5.63-4.74-9.81-2.3-4.86-4.36-8.77-6.14-11.73l-1.22.93-1.62,1q4.71,20.42,9.4,40.85l.36,1.59a2,2,0,0,1-1.72,2.62,2.41,2.41,0,0,1-1.71-.17,1.68,1.68,0,0,1-.91-1.13l-.37-1.59c-1.91-8.59-2.87-12.88-4.77-21.47-.86-4.14-1.29-6.21-2.14-10.34-2.19-10.59-4.36-21.19-6.81-31.73l-3.18-13.68c-.15-.64.66-1.16,2.42-1.55a17,17,0,0,1,7.45,0,13,13,0,0,1,6,3,18.73,18.73,0,0,1,6.13,10.68,25.65,25.65,0,0,1-.74,11.23q-.52,1.76-1.34,4.09A10.86,10.86,0,0,1,314.93,45c3.05,5.08,7.53,13,13.13,23.73,3.88,7.25,5.77,10.9,9.44,18.22a3.87,3.87,0,0,1,.33,1.16,3.15,3.15,0,0,1-.14,1.74,1.44,1.44,0,0,1-1.17.92A2.92,2.92,0,0,1,333.06,89.15ZM310.8,43.06a21.42,21.42,0,0,0,3-4.19,13.87,13.87,0,0,0,.76-4.82,24.26,24.26,0,0,0-.37-5.48A22.36,22.36,0,0,0,310.37,20a10.12,10.12,0,0,0-4-3.69,7.11,7.11,0,0,0-4.88-.68l-.29.06a.76.76,0,0,1-.42.2l6.72,30C308.27,45.72,309.35,44.78,310.8,43.06Z" transform="translate(-2.17 -12.32)"/><path d="M353.24,86a3.74,3.74,0,0,0-1,.24l-1,.14c-1.82.25-3,.06-3.63-.59a1.55,1.55,0,0,1,.81-1.44l.55-.63,3.62-.5.44-.5.12-1,0-1.31q-.87-6.58-1.95-11.71l-.79-4c-.53-3.14-.79-4.7-1.32-7.84q-.57-4.21-1.29-12.68c-.56-5-.84-7.53-1.39-12.55A81.56,81.56,0,0,0,344,19.23a19.53,19.53,0,0,0-4.38.27l-1.57.34a15.78,15.78,0,0,1-1.86.38c-1.83.27-2.84-.19-3-1.41,0-.29.34-.64,1.17-1.06a7.22,7.22,0,0,1,2.11-.76c3.68-.54,7.48-.82,11.11-1.07a33.32,33.32,0,0,1,6.81.19c1.78.25,2.73.76,2.82,1.56a2.24,2.24,0,0,1-.34.91l-3.3.58c-.73-.36-2.15-.41-4.27-.16l-.68.41q.55.92,1.14,5.67.88,7.13,1.46,12.87c.53,5.16.79,7.73,1.33,12.89.41,3.24,1.15,7.19,2,11.71,1,5.15,1.53,9.17,1.85,11.84l.17,1.4a12.09,12.09,0,0,0,.11,2,7,7,0,0,0,.75,3l-.1.23c.09.72,1.05,1,2.89.76a14.07,14.07,0,0,0,1.87-.32l1.88-.2c2.43-.25,3.69.14,3.79,1.15a1.92,1.92,0,0,1-.6,1.64,3.14,3.14,0,0,1-1.93.8,11.64,11.64,0,0,1-2,0,12.6,12.6,0,0,0-2.13.13,6.55,6.55,0,0,0-2.18.8,7.52,7.52,0,0,1-2.15.92C354.82,86.86,353.66,86.65,353.24,86Z" transform="translate(-2.17 -12.32)"/><path d="M380.68,82c-.48-4.83-1.26-11.26-1.77-18.86q-.48-7.17-.73-12.82c-.29-5.13-.43-7.69-.72-12.82q-.55-8.25-1.94-20.38A2.57,2.57,0,0,1,374.08,15c0-.51.34-1.06,1.13-1.66a4.21,4.21,0,0,1,2.21-1,3.33,3.33,0,0,1,2.25.74l1.66.89a18.89,18.89,0,0,0,3.39.48,21.74,21.74,0,0,1,3.53.5,27.42,27.42,0,0,1,5.93,3.17c2.35,1.6,4,2.73,4.84,3.15l-.14.22a9.78,9.78,0,0,0,2.19,2.79,27.71,27.71,0,0,1,2.6,3C405.21,30.66,406,35,406,40.27a20.61,20.61,0,0,1-.13,2.5c0,1,0,1.57,0,2.61v.87l-.13,1.09a5.79,5.79,0,0,0,.82,3.26c-.53,2.32-1.14,6.78-1.93,13.18a42.56,42.56,0,0,1-1.25,6A21.47,21.47,0,0,1,401.29,75c-2.15,3.59-5.74,6.67-10.7,9.34-3.49.14-5.23.24-8.71.45C381.21,84.87,380.87,83.85,380.68,82Zm9.27-.72a13.78,13.78,0,0,1,1.57-1.48l.86-.58,1-.8c7.24-6.41,8.82-17.17,8.5-26.33l0-2.07a12,12,0,0,1-.16-1.85c-.28-4.39-.42-6.59-.71-11a26,26,0,0,0-5.19-13,16.15,16.15,0,0,0-6-5.31,14.89,14.89,0,0,0-7.84-1.77c-1.16.06-1.41,6.86-.57,20.2s2,27,3.87,40.45c0,.83,0,1.24,0,2.07l.52.19.33,1.4Z" transform="translate(-2.17 -12.32)"/><path d="M429.13,83.59a7.86,7.86,0,0,1-3.86-4.81,55.27,55.27,0,0,1-1.94-11,137.91,137.91,0,0,1-1-17.13,74.53,74.53,0,0,1,.83-8.47c.42-2.73.64-4.09,1.07-6.82a98,98,0,0,1,2.09-12.28,14.46,14.46,0,0,1,4.51-7.21c2.28-2,5.75-3.11,10.36-3.16a17.39,17.39,0,0,1,2.35.06c3,.22,4.49.86,4.41,1.87q-.05.65-1,1.06a4.29,4.29,0,0,1-2,.33l-1.45-.22-1.3-.2a8.24,8.24,0,0,0-4.51.9,9.31,9.31,0,0,0-3.46,3.29,32.08,32.08,0,0,0-4.4,10.46,109.73,109.73,0,0,0-1.94,11.9c-.2,3.35-.31,5-.51,8.37-.16,3.55-.42,6.72,0,8a12.69,12.69,0,0,1,1.08,3.7c.14,1.64.22,3.89.26,6.71a26.15,26.15,0,0,0,.83,6.53A9.08,9.08,0,0,0,432.48,80a11.67,11.67,0,0,0,6.78,2.31,5.43,5.43,0,0,0,5.44-3.05,22.65,22.65,0,0,0,2.73-7.4c.54-3.21,1-6,1.17-8.2l.57-6c-.82-.8-2.34-1.31-4.56-1.5l-1.06-.09a9.38,9.38,0,0,1-1.47,0c-2.13-.16-3.17-.67-3.11-1.54.09-1.23,1.2-1.77,3.35-1.61,1.52.12,2.77.26,3.75.41l2.94.37a27.07,27.07,0,0,1,3.94,1.15c1,.4,1.53.85,1.48,1.36a19.37,19.37,0,0,1-1.22,3.92,18,18,0,0,0-1.09,4c-.31,3-.47,5.83-.59,8.25s-.43,5.32-.74,8.35c-4.67,3.31-9,4.83-13.25,4.52C433.71,85,430.92,84.48,429.13,83.59Z" transform="translate(-2.17 -12.32)"/><path d="M465,86.56l.2-1.4a6,6,0,0,0,.31-1.28l-.44-.5a11.11,11.11,0,0,0,1.63-4.28q.35-2.48.63-7.17c.3-2.86.45-4.29.75-7.15.51-3.59,1.34-9,2.68-16.11,1.2-6.3,2.23-11.74,2.87-16.2.26-2.6.39-3.9.64-6.51q.13-3,.63-6.51a2.64,2.64,0,0,1,1.34-2.17,5.73,5.73,0,0,1,3.3-.24,3.82,3.82,0,0,1,2.22,1c.18.1,1.57.45,4.13,1.09a39.21,39.21,0,0,1,6,2c1.73.76,2.56,1.45,2.44,2.1s-1.17,1.26-3.11,1.66c-5.19-2.31-9-3.59-11.29-3.94l-.82.54a44,44,0,0,1-.56,4.65c-.47,3.09-1,5.87-1.54,8.25s-.94,5.29-1.41,8.38c-.3,2,.18,3.11,1.46,3.3l2.2.23a23.17,23.17,0,0,1,2.33.27c3.54.58,5.2,1.54,5,2.83a3,3,0,0,1-1,1.86,2.55,2.55,0,0,1-2.16.46,5,5,0,0,1-3-1.37l-4.25-1.22-.68-.1-.76.44,0,.32a79.33,79.33,0,0,1-1,8.54q-.64,4.2-1.29,7.62l-1.28,7.62c-.42,2.8-.68,5.75-.93,8.67-.14,1.64.08,2.82.74,3.47a7.64,7.64,0,0,0,4,1.45l2.25.26a25.06,25.06,0,0,1,2.5.32c2.39.42,3.5,1.11,3.33,2-.24,1.28-2.16,1.58-5.76,1-4-.69-6-1-10.09-1.59A2.27,2.27,0,0,1,465,86.56Z" transform="translate(-2.17 -12.32)"/><path d="M529.25,49.54l1.15-4.2A76.18,76.18,0,0,1,536,30.39a23.88,23.88,0,0,1,4.23-6.06,13.09,13.09,0,0,1,5.31-3,11.69,11.69,0,0,1,6.9.11,19.6,19.6,0,0,1,6,3,14.42,14.42,0,0,1,3.9,4.07A14.13,14.13,0,0,1,564,33.22a28.65,28.65,0,0,1,.42,5.2c-.22,2.09-.33,3.13-.56,5.22-1.95,10.93-3.94,21.77-7.74,32.25l-.11.31c-1.22,3.42-2.44,6.54-3.61,9.35a92.32,92.32,0,0,1-5.17,10.31,23.86,23.86,0,0,1-3.08,4.35,26.79,26.79,0,0,1-3.76,3.32,8.5,8.5,0,0,1-8.28,1.42C514.37,98.57,526.16,62,529.25,49.54Zm8.1,51.79a14.55,14.55,0,0,0,4.2-4.52,77.54,77.54,0,0,0,7.29-13.28c1.47-3.58,2.77-7.22,4-10.72l.14-.41,3.42-10.34a131,131,0,0,0,3.33-15,43.16,43.16,0,0,0-.27-14.43A11,11,0,0,0,557,27.39a9.79,9.79,0,0,0-4.63-3,6.49,6.49,0,0,0-4.82.37,12.05,12.05,0,0,0-4.39,3.82,47.5,47.5,0,0,0-6.55,12.17c-1.17,3.31-2.39,6.83-3.42,10.46l-1.46,5.13a132.12,132.12,0,0,0-3.38,18.28,97,97,0,0,0-.91,12.54,32.29,32.29,0,0,0,1.4,9.62c.91,2.87,2.34,4.7,4.42,5.36A4.77,4.77,0,0,0,537.35,101.33Z" transform="translate(-2.17 -12.32)"/><path d="M569.26,116.83a13.87,13.87,0,0,1-2.52-4c-.62-1.61-.05-5.4,1.59-11.24s3.78-12.51,6.59-19.66c.63-1.6,1.08-2.89,1.35-3.68,3.31-9.76,8-20.05,11.08-30.41l1.4-1.08c2,1.05,2.31,3.33.87,6.82Q584.3,67,579,80.44c-.78,1.88-2.13,5.57-3.8,10.92-1.5,4.82-2.71,8.55-3.72,11-3.2,7.64-1.86,12.64,3.95,15.21,3.56,1.58,9-4.29,16.53-17.61L593,98c6.68-13.19,13.41-26.35,19.76-39.7l.28-.95a3,3,0,0,1,.28-1c.34-.72,1.28-.73,2.81,0,1.08.51,1.75,1.12,1.74,1.56a12.78,12.78,0,0,1-1.39,3.56q-3.6,7.45-5.62,9.63l-.15.65a33.66,33.66,0,0,1-2.28,3.74l-2.14,3.8-.47,1a3.62,3.62,0,0,1-.34,1c-.92,1.49-1.68,3.15-2.42,4.4-.24.4-.69,1.14-1.16,2.1-3,6.1-5.89,11.5-8.25,16A48.3,48.3,0,0,1,583.92,117c-3.68,3.39-7.35,4.27-11.12,2.62A10.18,10.18,0,0,1,569.26,116.83Z" transform="translate(-2.17 -12.32)"/><path d="M611.36,135.44l1.88-3.57q.75-1.58,1.82-3.47a11.05,11.05,0,0,1,1-1.55l1.08-1.64a20.52,20.52,0,0,0,.83-2.53c1.39-3.81,6.51-12.32,12.16-24.29,5.46-11.58,9.2-19.45,11.35-23.49-5.39-3-9.09-5-10.73-6.18s-2.21-2.21-1.84-2.92a3.07,3.07,0,0,1,3.08.25c2.65,1.39,6.5,3.54,11.27,6.59,4.35,2.79,8,5.21,11,7l2.71,1.63,2.76,1.55c1.54.95,2.06,1.83,1.56,2.63-.23.37-.69.49-1.37.36a6.44,6.44,0,0,1-2.18-.89q-2.56-1.57-5.27-3.43c-2.17-1.39-3.26-2.08-5.44-3.44-.35-.2-.57-.2-.68,0a7.47,7.47,0,0,0-1.16,1.72c-5.28,9.25-9.88,19-14.52,28.6S621.3,127.53,616,136.71a1.8,1.8,0,0,1-1.66.67,4.16,4.16,0,0,1-2.16-.49Z" transform="translate(-2.17 -12.32)"/><path d="M636.54,151.52a14,14,0,0,0,2.22-2.84c5.52-8.23,11.23-16.35,16.91-24.47,5.41-7.73,10.88-15.44,16.17-23.26l2.44-3.09,2.2-2.46c.28-.42.72-.44,1.3,0a9.57,9.57,0,0,1,1.56,1.47l.31.35q-1.36,2-2.59,3.51l-2.4,3.5L667.95,114c-1.89,2.93-4,7-6.6,9.87a18.79,18.79,0,0,0-1.47,1.9l-1.41,1.81q-1.35,1.72-2.64,3.6-1.42,2.07-2.47,3.85L650.81,139l-.83.49h.17c-.12.18-.24.27-.36.28l-.25.36a2.85,2.85,0,0,0-.53,1.49l-6.24,8.4-.37.54a14.13,14.13,0,0,0-1.12,1.87.6.6,0,0,0,.23.82c2.18,1.61,3.26,2.42,5.41,4.06,1.62,1.16,2.72,2,3.3,2.45l1.07.85.31.23a2,2,0,0,1,.69,1.26,1.72,1.72,0,0,1-.22,1.39c-.52.7-1.45.68-2.51-.09s-4-3.09-8.66-6.33l.15.24A16.59,16.59,0,0,0,639,156a15.85,15.85,0,0,1-2-1.13C636,154.15,635.82,153.06,636.54,151.52Z" transform="translate(-2.17 -12.32)"/><path d="M684,140.42l2.35-3c5.47-7.08,18.21-23.19,27.36-17a8,8,0,0,1,1.45,1.63,89.37,89.37,0,0,0,6.41,7.45c1.29,1.39,1.76,3.91,1.59,7.05a26.35,26.35,0,0,1-3.35,10.91,54.46,54.46,0,0,1-7.7,10.81l-.58.21q-2.42,2.66-4.21,4.85L703,168.29a83.26,83.26,0,0,1-7.15,7,49,49,0,0,1-9.82,6.83,20.49,20.49,0,0,1-5.3,1.84,13.92,13.92,0,0,1-5,0,9.48,9.48,0,0,1-4.72-2.34C659.67,171.18,677.32,148.8,684,140.42Zm-1.57,38.94A41.91,41.91,0,0,0,693,172.13q4.75-4.5,7.37-7.44c1.93-2.17,4.56-5.66,7.9-10.18,3.72-5,6.48-8.42,8-10.11l.13-1.05.58-.21a10.86,10.86,0,0,0,2.67-8.68,12.6,12.6,0,0,0-4.64-8.58c-3.59-3-6.78-3.54-9.5-1.63a33.47,33.47,0,0,0-3.41,3.27c-3.4,3.82-5.9,6.86-7.58,8a46.93,46.93,0,0,1-3.54,3.72l-3.42,3.82Q686,145,685,146.5L682.39,150a74.21,74.21,0,0,0-6.5,9.87,62.77,62.77,0,0,0-3.74,7.63,18.52,18.52,0,0,0-1.29,6.41,6,6,0,0,0,1.86,5Q676.63,182.19,682.45,179.36Z" transform="translate(-2.17 -12.32)"/><path d="M721.34,173.37l2.67-2.72c6.28-6.49,20.74-21,29.23-13.65a8.43,8.43,0,0,1,1.29,1.82,93.91,93.91,0,0,0,5.68,8.29c1.15,1.56,1.38,4.16.88,7.29A26.07,26.07,0,0,1,756.62,185a53.15,53.15,0,0,1-8.84,9.9l-.61.13q-2.7,2.37-4.73,4.35l-4.81,4.42a81.2,81.2,0,0,1-7.9,6.18,48,48,0,0,1-10.57,5.62,20.36,20.36,0,0,1-5.51,1.18,14.15,14.15,0,0,1-5-.65,9.91,9.91,0,0,1-4.51-2.95C693.78,201.31,713.62,181.09,721.34,173.37Zm-5.54,38.92a41.07,41.07,0,0,0,11.35-5.94q5.23-3.93,8.16-6.55c2.16-1.94,5.16-5.11,9-9.24,4.25-4.59,7.37-7.65,9-9.16l.24-1,.61-.14a10.75,10.75,0,0,0,3.57-8.39,13.08,13.08,0,0,0-3.79-9.2c-3.31-3.49-6.46-4.41-9.38-2.82a32.78,32.78,0,0,0-3.76,2.86c-3.8,3.41-6.63,6.15-8.44,7.11a45.86,45.86,0,0,1-3.94,3.3l-3.83,3.41q-1.7,1.69-2.9,3.1l-3,3.18a72.59,72.59,0,0,0-7.54,9.1,61.66,61.66,0,0,0-4.53,7.2,18.39,18.39,0,0,0-2,6.28,6.17,6.17,0,0,0,1.37,5.23C708.47,213.12,711.7,213.7,715.8,212.29Z" transform="translate(-2.17 -12.32)"/><path d="M747,249.79a176.57,176.57,0,0,1,11.21-17.88c4.29-6,7.45-10,9.58-11.9l.07-.63-4.14.3a37.47,37.47,0,0,0-4.48.33,29.12,29.12,0,0,0-3.83,1A11.91,11.91,0,0,0,751.5,223a24.07,24.07,0,0,1-3.26,2.19l-3.26,2.2L734,236a17.84,17.84,0,0,0-2.22,2.28,17,17,0,0,1-2.14,2.21,1.09,1.09,0,0,1-1.15,0,3.06,3.06,0,0,1-1.23-.95,4.56,4.56,0,0,1-1.15-2.14q0-.75,1.06-1.64l15.94-12.84a58.83,58.83,0,0,1,5.8-3.73,61.69,61.69,0,0,0,5.81-3.71,95.67,95.67,0,0,1,8.72-6,94.55,94.55,0,0,0,8.56-6L783.87,194a3.67,3.67,0,0,1,2.83,1.67,3.8,3.8,0,0,1,.87,2.09,1.75,1.75,0,0,1-.62,1.6,9.32,9.32,0,0,0-4.91,2.19l-9.21,6.78q-4.31,3-9.28,6.86c.79.66,7.14.57,19.24.53s18.43.65,18.87,1.27c1.63,2.33,1.92,3.85.91,4.55a109.63,109.63,0,0,0-26.19-2.05l-2.89,2a34.62,34.62,0,0,0-2.89,2c-2.56,1.91-6.31,6.89-11.46,14.74s-8.55,13.62-10.06,17.43c-.3,1.48-.46,2.33-.47,2.57a17.11,17.11,0,0,1-1,3.13,4,4,0,0,1-1.4,1.72,1.35,1.35,0,0,1-1.38.1,3.12,3.12,0,0,1-1.3-1.13C742.3,260.14,743.52,256.12,747,249.79Z" transform="translate(-2.17 -12.32)"/></g></g></svg>