<svg xmlns="http://www.w3.org/2000/svg" viewBox="0 0 57.6 62.43"><defs><style>.cls-1{fill:none;stroke:#232e3b;stroke-miterlimit:10;stroke-width:2px;}.cls-2{fill:#232e3b;}</style></defs><title>milling</title><g id="Layer_2" data-name="Layer 2"><g id="Layer_1-2" data-name="Layer 1"><path class="cls-1" d="M1,1V42.52l.23.27C6.1,50.6,14.31,55.28,28.13,61l.78.32.78-.32c13.83-5.74,22-10.42,26.81-18.24l.1-.12V1Z"/><rect class="cls-2" x="15.69" y="7.52" width="26.22" height="7.89" rx="1.46" ry="1.46"/><path class="cls-2" d="M15.69,8.85c0-2,5.83-3.55,13-3.55s13,1.59,13,3.55"/><polygon class="cls-2" points="19.33 42.99 19.33 51.05 38.34 51.05 38.34 44.4 31.85 44.4 31.85 45.96 25.59 45.96 25.59 42.97 19.33 42.99"/><polygon class="cls-2" points="31.55 30.59 25.72 36.31 25.72 39.57 31.55 33.85 31.55 30.59"/><polygon class="cls-2" points="25.72 31.45 25.72 34.78 31.55 29.06 31.55 26.13 31.16 26.13 25.72 31.45"/><polygon class="cls-2" points="29.59 26.13 25.72 26.13 25.72 29.92 29.59 26.13"/><polygon class="cls-2" points="26.95 40.15 31.8 40.15 31.8 35.38 26.95 40.15"/><path class="cls-2" d="M36.44,16.63H20.09V24a1.25,1.25,0,0,0,1.25,1.25H36.44A1.25,1.25,0,0,0,37.69,24V16.63Zm-.86,7.46a1,1,0,1,1,1-1,1,1,0,0,1-1,1"/></g></g></svg>