<svg xmlns="http://www.w3.org/2000/svg" viewBox="0 0 57.6 62.43"><defs><style>.cls-1{fill:#232e3b;}.cls-2{fill:none;stroke:#232e3b;stroke-miterlimit:10;stroke-width:2px;}</style></defs><title>repair</title><g id="Layer_2" data-name="Layer 2"><g id="Layer_1-2" data-name="Layer 1"><path class="cls-1" d="M48.54,41.38a6,6,0,0,0-2.81-4.84,6.16,6.16,0,0,0-4.48-.41L21.46,17.06,21.62,14a4.15,4.15,0,0,0-2.1-3.84A7.13,7.13,0,0,0,13,9.47c-.69.34-.32.61-.32.61s3.4,1.24,3.79,3.13-1.83,3.79-2.74,4-4.31-2.42-4.31-2.42-.48-.56-.35,1.21a6,6,0,0,0,2.81,4.84c1.84,1.18,4.56.4,4.85.31L36.16,39.87,36,43.41a4.15,4.15,0,0,0,2.1,3.84,7.14,7.14,0,0,0,6.54.64c.69-.34.32-.61.32-.61s-3.4-1.24-3.79-3.13,1.83-3.79,2.74-4,4.31,2.41,4.31,2.41.48.57.35-1.21"/><path class="cls-2" d="M1,1V42.52l.23.27C6.1,50.6,14.31,55.28,28.13,61l.78.32.78-.32c13.83-5.74,22-10.42,26.81-18.24l.1-.12V1Z"/></g></g></svg>