<svg xmlns="http://www.w3.org/2000/svg" viewBox="0 0 57.6 62.43"><defs><style>.cls-1,.cls-3{fill:none;stroke:#232e3b;stroke-miterlimit:10;}.cls-1{stroke-width:2px;}.cls-2{fill:#232e3b;}.cls-3{stroke-width:0.49px;}</style></defs><title>turning</title><g id="Layer_2" data-name="Layer 2"><g id="Layer_1-2" data-name="Layer 1"><path class="cls-1" d="M1,1V42.52l.23.27C6.1,50.6,14.31,55.28,28.13,61l.78.32.78-.32c13.83-5.74,22-10.42,26.81-18.24l.1-.12V1Z"/><rect class="cls-2" x="14.1" y="21.11" width="9.97" height="16.72"/><polygon class="cls-2" points="29.57 33.16 25.05 37.06 25.05 22.06 29.57 26.01 29.57 33.16"/><rect class="cls-2" x="30.53" y="25.98" width="4.99" height="7.15"/><polyline class="cls-2" points="37.93 1.79 37.93 19.92 43.52 16.84 43.52 21.86 45.46 20.77 45.46 1.99"/><path class="cls-2" d="M36.57,22.18V28.5l5.81-3V19.16Zm2.91,2.59a.94.94,0,1,1,.94-.94.94.94,0,0,1-.94.94"/><path class="cls-2" d="M8.89,19.29v0l-.14,0c-2.3,0-4.19,3.15-4.19,7v6.34c0,3.85,1.88,7,4.19,7l.14,0v0H13V19.29Z"/><path class="cls-3" d="M34.94,30.7s.14,4.34,3.76,4.73,4.38-1.73,2.68-3.12c-1.22-1-3.51-.35-2.93,4.48s8.78,4.1,6.91,1.71c-1.56-2-5.65,6.95,0,8.08,3.87.78,6.31-3.54,3.32-5"/></g></g></svg>