<svg xmlns="http://www.w3.org/2000/svg" viewBox="0 0 57.6 62.43"><defs><style>.cls-1{fill:none;stroke:#232e3b;stroke-miterlimit:10;stroke-width:2px;}.cls-2{fill:#232e3b;}</style></defs><title>welding</title><g id="Layer_2" data-name="Layer 2"><g id="Layer_1-2" data-name="Layer 1"><path class="cls-1" d="M1,1V42.52l.23.27C6.1,50.6,14.31,55.28,28.13,61l.78.32.78-.32c13.83-5.74,22-10.42,26.81-18.24l.1-.12V1Z"/><path class="cls-2" d="M7.43,43.34l.76-2c.64-1.71,6.43-16.74,13.1-18.18a5.11,5.11,0,0,1,4.87,1.64,5.08,5.08,0,0,1,1.63,4.85C26.32,36.24,11.19,42,9.47,42.59ZM22.33,25a2.93,2.93,0,0,0-.62.07c-4.1.89-8.59,9.63-10.79,14.8,5.2-2.17,14-6.62,14.91-10.7a3.15,3.15,0,0,0-1.09-3A3.41,3.41,0,0,0,22.33,25"/><path class="cls-2" d="M31,15.79l-3.36,3.36A2.36,2.36,0,0,0,31,22.49l3.36-3.36Z"/><path class="cls-2" d="M41.6,8.55a2.36,2.36,0,0,0-3.34,0l-5,5,3.34,3.34,3.35-3.35L55.53,29.15V22.48Z"/></g></g></svg>